<svg width="313" height="73" viewBox="0 0 313 73" fill="none" xmlns="http://www.w3.org/2000/svg">
<rect x="1" y="1" width="311" height="71" rx="15" stroke="#767676" stroke-linecap="round" stroke-dasharray="10 10"/>
<path d="M104.904 40.728H100.248L99.448 43H97.544L101.528 31.864H103.64L107.624 43H105.704L104.904 40.728ZM104.392 39.24L102.584 34.072L100.76 39.24H104.392ZM108.748 38.552C108.748 37.6667 108.93 36.8827 109.292 36.2C109.666 35.5173 110.167 34.9893 110.796 34.616C111.436 34.232 112.146 34.04 112.924 34.04C113.5 34.04 114.066 34.168 114.62 34.424C115.186 34.6693 115.634 35 115.964 35.416V31.16H117.804V43H115.964V41.672C115.666 42.0987 115.25 42.4507 114.716 42.728C114.194 43.0053 113.591 43.144 112.908 43.144C112.14 43.144 111.436 42.952 110.796 42.568C110.167 42.1733 109.666 41.6293 109.292 40.936C108.93 40.232 108.748 39.4373 108.748 38.552ZM115.964 38.584C115.964 37.976 115.836 37.448 115.58 37C115.335 36.552 115.01 36.2107 114.604 35.976C114.199 35.7413 113.762 35.624 113.292 35.624C112.823 35.624 112.386 35.7413 111.98 35.976C111.575 36.2 111.244 36.536 110.988 36.984C110.743 37.4213 110.62 37.944 110.62 38.552C110.62 39.16 110.743 39.6933 110.988 40.152C111.244 40.6107 111.575 40.9627 111.98 41.208C112.396 41.4427 112.834 41.56 113.292 41.56C113.762 41.56 114.199 41.4427 114.604 41.208C115.01 40.9733 115.335 40.632 115.58 40.184C115.836 39.7253 115.964 39.192 115.964 38.584ZM119.592 38.552C119.592 37.6667 119.773 36.8827 120.136 36.2C120.509 35.5173 121.011 34.9893 121.64 34.616C122.28 34.232 122.989 34.04 123.768 34.04C124.344 34.04 124.909 34.168 125.464 34.424C126.029 34.6693 126.477 35 126.808 35.416V31.16H128.648V43H126.808V41.672C126.509 42.0987 126.093 42.4507 125.56 42.728C125.037 43.0053 124.435 43.144 123.752 43.144C122.984 43.144 122.28 42.952 121.64 42.568C121.011 42.1733 120.509 41.6293 120.136 40.936C119.773 40.232 119.592 39.4373 119.592 38.552ZM126.808 38.584C126.808 37.976 126.68 37.448 126.424 37C126.179 36.552 125.853 36.2107 125.448 35.976C125.043 35.7413 124.605 35.624 124.136 35.624C123.667 35.624 123.229 35.7413 122.824 35.976C122.419 36.2 122.088 36.536 121.832 36.984C121.587 37.4213 121.464 37.944 121.464 38.552C121.464 39.16 121.587 39.6933 121.832 40.152C122.088 40.6107 122.419 40.9627 122.824 41.208C123.24 41.4427 123.677 41.56 124.136 41.56C124.605 41.56 125.043 41.4427 125.448 41.208C125.853 40.9733 126.179 40.632 126.424 40.184C126.68 39.7253 126.808 39.192 126.808 38.584ZM146.912 31.88V43H145.088V35.384L141.696 43H140.432L137.024 35.384V43H135.2V31.88H137.168L141.072 40.6L144.96 31.88H146.912ZM148.701 38.552C148.701 37.6667 148.883 36.8827 149.245 36.2C149.619 35.5173 150.12 34.9893 150.749 34.616C151.389 34.232 152.093 34.04 152.861 34.04C153.555 34.04 154.157 34.1787 154.669 34.456C155.192 34.7227 155.608 35.0587 155.917 35.464V34.184H157.757V43H155.917V41.688C155.608 42.104 155.187 42.4507 154.653 42.728C154.12 43.0053 153.512 43.144 152.829 43.144C152.072 43.144 151.379 42.952 150.749 42.568C150.12 42.1733 149.619 41.6293 149.245 40.936C148.883 40.232 148.701 39.4373 148.701 38.552ZM155.917 38.584C155.917 37.976 155.789 37.448 155.533 37C155.288 36.552 154.963 36.2107 154.557 35.976C154.152 35.7413 153.715 35.624 153.245 35.624C152.776 35.624 152.339 35.7413 151.933 35.976C151.528 36.2 151.197 36.536 150.941 36.984C150.696 37.4213 150.573 37.944 150.573 38.552C150.573 39.16 150.696 39.6933 150.941 40.152C151.197 40.6107 151.528 40.9627 151.933 41.208C152.349 41.4427 152.787 41.56 153.245 41.56C153.715 41.56 154.152 41.4427 154.557 41.208C154.963 40.9733 155.288 40.632 155.533 40.184C155.789 39.7253 155.917 39.192 155.917 38.584ZM163.353 43.144C162.66 43.144 162.036 43.0213 161.481 42.776C160.937 42.52 160.505 42.1787 160.185 41.752C159.865 41.3147 159.694 40.8293 159.673 40.296H161.561C161.593 40.6693 161.769 40.984 162.089 41.24C162.42 41.4853 162.83 41.608 163.321 41.608C163.833 41.608 164.228 41.512 164.505 41.32C164.793 41.1173 164.937 40.8613 164.937 40.552C164.937 40.2213 164.777 39.976 164.457 39.816C164.148 39.656 163.652 39.48 162.969 39.288C162.308 39.1067 161.769 38.9307 161.353 38.76C160.937 38.5893 160.574 38.328 160.265 37.976C159.966 37.624 159.817 37.16 159.817 36.584C159.817 36.1147 159.956 35.688 160.233 35.304C160.51 34.9093 160.905 34.6 161.417 34.376C161.94 34.152 162.537 34.04 163.209 34.04C164.212 34.04 165.017 34.296 165.625 34.808C166.244 35.3093 166.574 35.9973 166.617 36.872H164.793C164.761 36.4773 164.601 36.1627 164.313 35.928C164.025 35.6933 163.636 35.576 163.145 35.576C162.665 35.576 162.297 35.6667 162.041 35.848C161.785 36.0293 161.657 36.2693 161.657 36.568C161.657 36.8027 161.742 37 161.913 37.16C162.084 37.32 162.292 37.448 162.537 37.544C162.782 37.6293 163.145 37.7413 163.625 37.88C164.265 38.0507 164.788 38.2267 165.193 38.408C165.609 38.5787 165.966 38.8347 166.265 39.176C166.564 39.5173 166.718 39.9707 166.729 40.536C166.729 41.0373 166.59 41.4853 166.313 41.88C166.036 42.2747 165.641 42.584 165.129 42.808C164.628 43.032 164.036 43.144 163.353 43.144ZM170.828 35.672V40.552C170.828 40.8827 170.903 41.1227 171.052 41.272C171.212 41.4107 171.479 41.48 171.852 41.48H172.972V43H171.532C170.711 43 170.081 42.808 169.644 42.424C169.207 42.04 168.988 41.416 168.988 40.552V35.672H167.948V34.184H168.988V31.992H170.828V34.184H172.972V35.672H170.828ZM182.733 38.376C182.733 38.7067 182.712 39.0053 182.669 39.272H175.933C175.986 39.976 176.248 40.5413 176.717 40.968C177.186 41.3947 177.762 41.608 178.445 41.608C179.426 41.608 180.12 41.1973 180.525 40.376H182.493C182.226 41.1867 181.741 41.8533 181.037 42.376C180.344 42.888 179.48 43.144 178.445 43.144C177.602 43.144 176.845 42.9573 176.173 42.584C175.512 42.2 174.989 41.6667 174.605 40.984C174.232 40.2907 174.045 39.4907 174.045 38.584C174.045 37.6773 174.226 36.8827 174.589 36.2C174.962 35.5067 175.48 34.9733 176.141 34.6C176.813 34.2267 177.581 34.04 178.445 34.04C179.277 34.04 180.018 34.2213 180.669 34.584C181.32 34.9467 181.826 35.4587 182.189 36.12C182.552 36.7707 182.733 37.5227 182.733 38.376ZM180.829 37.8C180.818 37.128 180.578 36.5893 180.109 36.184C179.64 35.7787 179.058 35.576 178.365 35.576C177.736 35.576 177.197 35.7787 176.749 36.184C176.301 36.5787 176.034 37.1173 175.949 37.8H180.829ZM186.352 35.464C186.619 35.016 186.971 34.6693 187.408 34.424C187.856 34.168 188.384 34.04 188.992 34.04V35.928H188.528C187.813 35.928 187.269 36.1093 186.896 36.472C186.533 36.8347 186.352 37.464 186.352 38.36V43H184.528V34.184H186.352V35.464ZM197.853 31.88V33.368H194.893V43H193.069V33.368H190.093V31.88H197.853ZM199.092 38.552C199.092 37.6667 199.273 36.8827 199.636 36.2C200.009 35.5173 200.511 34.9893 201.14 34.616C201.78 34.232 202.484 34.04 203.252 34.04C203.945 34.04 204.548 34.1787 205.06 34.456C205.583 34.7227 205.999 35.0587 206.308 35.464V34.184H208.148V43H206.308V41.688C205.999 42.104 205.577 42.4507 205.044 42.728C204.511 43.0053 203.903 43.144 203.22 43.144C202.463 43.144 201.769 42.952 201.14 42.568C200.511 42.1733 200.009 41.6293 199.636 40.936C199.273 40.232 199.092 39.4373 199.092 38.552ZM206.308 38.584C206.308 37.976 206.18 37.448 205.924 37C205.679 36.552 205.353 36.2107 204.948 35.976C204.543 35.7413 204.105 35.624 203.636 35.624C203.167 35.624 202.729 35.7413 202.324 35.976C201.919 36.2 201.588 36.536 201.332 36.984C201.087 37.4213 200.964 37.944 200.964 38.552C200.964 39.16 201.087 39.6933 201.332 40.152C201.588 40.6107 201.919 40.9627 202.324 41.208C202.74 41.4427 203.177 41.56 203.636 41.56C204.105 41.56 204.543 41.4427 204.948 41.208C205.353 40.9733 205.679 40.632 205.924 40.184C206.18 39.7253 206.308 39.192 206.308 38.584ZM214.096 34.04C214.778 34.04 215.381 34.1787 215.904 34.456C216.437 34.7227 216.853 35.0587 217.152 35.464V34.184H218.992V43.144C218.992 43.9547 218.821 44.6747 218.48 45.304C218.138 45.944 217.642 46.4453 216.992 46.808C216.352 47.1707 215.584 47.352 214.688 47.352C213.493 47.352 212.501 47.0693 211.712 46.504C210.922 45.9493 210.474 45.192 210.368 44.232H212.176C212.314 44.6907 212.608 45.0587 213.056 45.336C213.514 45.624 214.058 45.768 214.688 45.768C215.424 45.768 216.016 45.544 216.464 45.096C216.922 44.648 217.152 43.9973 217.152 43.144V41.672C216.842 42.088 216.421 42.44 215.888 42.728C215.365 43.0053 214.768 43.144 214.096 43.144C213.328 43.144 212.624 42.952 211.984 42.568C211.354 42.1733 210.853 41.6293 210.48 40.936C210.117 40.232 209.936 39.4373 209.936 38.552C209.936 37.6667 210.117 36.8827 210.48 36.2C210.853 35.5173 211.354 34.9893 211.984 34.616C212.624 34.232 213.328 34.04 214.096 34.04ZM217.152 38.584C217.152 37.976 217.024 37.448 216.768 37C216.522 36.552 216.197 36.2107 215.792 35.976C215.386 35.7413 214.949 35.624 214.48 35.624C214.01 35.624 213.573 35.7413 213.168 35.976C212.762 36.2 212.432 36.536 212.176 36.984C211.93 37.4213 211.808 37.944 211.808 38.552C211.808 39.16 211.93 39.6933 212.176 40.152C212.432 40.6107 212.762 40.9627 213.168 41.208C213.584 41.4427 214.021 41.56 214.48 41.56C214.949 41.56 215.386 41.4427 215.792 41.208C216.197 40.9733 216.522 40.632 216.768 40.184C217.024 39.7253 217.152 39.192 217.152 38.584ZM229.208 43.112C228.461 43.112 227.789 42.984 227.192 42.728C226.594 42.4613 226.125 42.088 225.784 41.608C225.442 41.128 225.272 40.568 225.272 39.928H227.224C227.266 40.408 227.453 40.8027 227.784 41.112C228.125 41.4213 228.6 41.576 229.208 41.576C229.837 41.576 230.328 41.4267 230.68 41.128C231.032 40.8187 231.208 40.424 231.208 39.944C231.208 39.5707 231.096 39.2667 230.872 39.032C230.658 38.7973 230.386 38.616 230.056 38.488C229.736 38.36 229.288 38.2213 228.712 38.072C227.986 37.88 227.394 37.688 226.936 37.496C226.488 37.2933 226.104 36.984 225.784 36.568C225.464 36.152 225.304 35.5973 225.304 34.904C225.304 34.264 225.464 33.704 225.784 33.224C226.104 32.744 226.552 32.376 227.128 32.12C227.704 31.864 228.37 31.736 229.128 31.736C230.205 31.736 231.085 32.008 231.768 32.552C232.461 33.0853 232.845 33.8213 232.92 34.76H230.904C230.872 34.3547 230.68 34.008 230.328 33.72C229.976 33.432 229.512 33.288 228.936 33.288C228.413 33.288 227.986 33.4213 227.656 33.688C227.325 33.9547 227.16 34.3387 227.16 34.84C227.16 35.1813 227.261 35.464 227.464 35.688C227.677 35.9013 227.944 36.072 228.264 36.2C228.584 36.328 229.021 36.4667 229.576 36.616C230.312 36.8187 230.909 37.0213 231.368 37.224C231.837 37.4267 232.232 37.7413 232.552 38.168C232.882 38.584 233.048 39.144 233.048 39.848C233.048 40.4133 232.893 40.9467 232.584 41.448C232.285 41.9493 231.842 42.3547 231.256 42.664C230.68 42.9627 229.997 43.112 229.208 43.112ZM237.328 35.672V40.552C237.328 40.8827 237.403 41.1227 237.552 41.272C237.712 41.4107 237.979 41.48 238.352 41.48H239.472V43H238.032C237.211 43 236.581 42.808 236.144 42.424C235.707 42.04 235.488 41.416 235.488 40.552V35.672H234.448V34.184H235.488V31.992H237.328V34.184H239.472V35.672H237.328ZM242.081 33.016C241.75 33.016 241.473 32.904 241.249 32.68C241.025 32.456 240.913 32.1787 240.913 31.848C240.913 31.5173 241.025 31.24 241.249 31.016C241.473 30.792 241.75 30.68 242.081 30.68C242.401 30.68 242.673 30.792 242.897 31.016C243.121 31.24 243.233 31.5173 243.233 31.848C243.233 32.1787 243.121 32.456 242.897 32.68C242.673 32.904 242.401 33.016 242.081 33.016ZM242.977 34.184V43H241.153V34.184H242.977ZM244.764 38.584C244.764 37.6773 244.945 36.8827 245.308 36.2C245.681 35.5067 246.193 34.9733 246.844 34.6C247.495 34.2267 248.241 34.04 249.084 34.04C250.151 34.04 251.031 34.296 251.724 34.808C252.428 35.3093 252.903 36.0293 253.148 36.968H251.18C251.02 36.5307 250.764 36.1893 250.412 35.944C250.06 35.6987 249.617 35.576 249.084 35.576C248.337 35.576 247.74 35.8427 247.292 36.376C246.855 36.8987 246.636 37.6347 246.636 38.584C246.636 39.5333 246.855 40.2747 247.292 40.808C247.74 41.3413 248.337 41.608 249.084 41.608C250.14 41.608 250.839 41.144 251.18 40.216H253.148C252.892 41.112 252.412 41.8267 251.708 42.36C251.004 42.8827 250.129 43.144 249.084 43.144C248.241 43.144 247.495 42.9573 246.844 42.584C246.193 42.2 245.681 41.6667 245.308 40.984C244.945 40.2907 244.764 39.4907 244.764 38.584ZM258.454 38.6L262.518 43H260.054L256.79 39.208V43H254.966V31.16H256.79V38.04L259.99 34.184H262.518L258.454 38.6ZM271.905 38.376C271.905 38.7067 271.884 39.0053 271.841 39.272H265.105C265.158 39.976 265.42 40.5413 265.889 40.968C266.358 41.3947 266.934 41.608 267.617 41.608C268.598 41.608 269.292 41.1973 269.697 40.376H271.665C271.398 41.1867 270.913 41.8533 270.209 42.376C269.516 42.888 268.652 43.144 267.617 43.144C266.774 43.144 266.017 42.9573 265.345 42.584C264.684 42.2 264.161 41.6667 263.777 40.984C263.404 40.2907 263.217 39.4907 263.217 38.584C263.217 37.6773 263.398 36.8827 263.761 36.2C264.134 35.5067 264.652 34.9733 265.313 34.6C265.985 34.2267 266.753 34.04 267.617 34.04C268.449 34.04 269.19 34.2213 269.841 34.584C270.492 34.9467 270.998 35.4587 271.361 36.12C271.724 36.7707 271.905 37.5227 271.905 38.376ZM270.001 37.8C269.99 37.128 269.75 36.5893 269.281 36.184C268.812 35.7787 268.23 35.576 267.537 35.576C266.908 35.576 266.369 35.7787 265.921 36.184C265.473 36.5787 265.206 37.1173 265.121 37.8H270.001ZM275.524 35.464C275.791 35.016 276.143 34.6693 276.58 34.424C277.028 34.168 277.556 34.04 278.164 34.04V35.928H277.7C276.985 35.928 276.441 36.1093 276.068 36.472C275.705 36.8347 275.524 37.464 275.524 38.36V43H273.7V34.184H275.524V35.464Z" fill="#222222"/>
<path d="M53.4063 56.8125C64.1241 56.8125 72.8125 48.1241 72.8125 37.4063C72.8125 26.6885 64.1241 18 53.4063 18C42.6885 18 34 26.6885 34 37.4063C34 48.1241 42.6885 56.8125 53.4063 56.8125Z" stroke="black" stroke-linecap="round" stroke-linejoin="round"/>
<path d="M45.0894 37.4062H61.7233" stroke="black" stroke-linecap="round" stroke-linejoin="round"/>
<path d="M53.4062 29.0894V45.7233" stroke="black" stroke-linecap="round" stroke-linejoin="round"/>
</svg>
