<svg width="41" height="41" viewBox="0 0 41 41" fill="none" xmlns="http://www.w3.org/2000/svg">
<circle cx="20.5" cy="20.5" r="20.5" fill="#F1F1F1"/>
<path d="M27.2929 15.3185C27.6834 14.928 27.6834 14.2948 27.2929 13.9043L27.0957 13.7071C26.7052 13.3166 26.072 13.3166 25.6815 13.7071L20.7071 18.6815C20.3166 19.072 19.6834 19.072 19.2929 18.6815L14.3185 13.7071C13.928 13.3166 13.2948 13.3166 12.9043 13.7071L12.7071 13.9043C12.3166 14.2948 12.3166 14.928 12.7071 15.3185L17.6815 20.2929C18.072 20.6834 18.072 21.3166 17.6815 21.7071L12.7071 26.6815C12.3166 27.072 12.3166 27.7052 12.7071 28.0957L12.9043 28.2929C13.2948 28.6834 13.928 28.6834 14.3185 28.2929L19.2929 23.3185C19.6834 22.928 20.3166 22.928 20.7071 23.3185L25.6815 28.2929C26.072 28.6834 26.7052 28.6834 27.0957 28.2929L27.2929 28.0957C27.6834 27.7052 27.6834 27.072 27.2929 26.6815L22.3185 21.7071C21.928 21.3166 21.928 20.6834 22.3185 20.2929L27.2929 15.3185Z" fill="#969696"/>
</svg>
