<svg width="14" height="13" viewBox="0 0 14 13" fill="none" xmlns="http://www.w3.org/2000/svg">
<path fill-rule="evenodd" clip-rule="evenodd" d="M6.89783 0.0517578C5.02448 0.0517578 4.78958 0.0592033 4.05386 0.09068C3.31966 0.12208 2.81824 0.231426 2.37949 0.391326C1.92589 0.556591 1.54122 0.777749 1.15772 1.13732C0.774251 1.49691 0.538391 1.85761 0.36214 2.28293C0.191612 2.69433 0.0749964 3.1645 0.0415095 3.85293C0.00794047 4.5428 0 4.76306 0 6.51964C0 8.2762 0.00794047 8.49646 0.0415095 9.18633C0.0749964 9.87475 0.191612 10.3449 0.36214 10.7563C0.538391 11.1817 0.774251 11.5423 1.15772 11.9019C1.54122 12.2615 1.92589 12.4827 2.37949 12.648C2.81824 12.8078 3.31966 12.9172 4.05386 12.9486C4.78958 12.9801 5.02448 12.9875 6.89783 12.9875C8.77115 12.9875 9.00605 12.9801 9.74178 12.9486C10.476 12.9172 10.9774 12.8078 11.4162 12.648C11.8697 12.4827 12.2544 12.2615 12.6379 11.9019C13.0214 11.5423 13.2572 11.1817 13.4335 10.7563C13.604 10.3449 13.7206 9.87475 13.7541 9.18633C13.7877 8.49646 13.7956 8.2762 13.7956 6.51964C13.7956 4.76306 13.7877 4.5428 13.7541 3.85293C13.7206 3.1645 13.604 2.69433 13.4335 2.28293C13.2572 1.85761 13.0214 1.49691 12.6379 1.13732C12.2544 0.777749 11.8697 0.556591 11.4162 0.391326C10.9774 0.231426 10.476 0.12208 9.74178 0.09068C9.00605 0.0592033 8.77115 0.0517578 6.89783 0.0517578ZM6.89783 1.21714C8.73961 1.21714 8.95778 1.22374 9.68513 1.25485C10.3577 1.28361 10.7229 1.38898 10.966 1.47755C11.2879 1.59488 11.5177 1.73504 11.7591 1.96138C12.0005 2.1877 12.1499 2.40316 12.2751 2.70506C12.3695 2.93297 12.4819 3.27544 12.5126 3.90605C12.5458 4.58807 12.5528 4.79264 12.5528 6.51964C12.5528 8.24662 12.5458 8.45119 12.5126 9.1332C12.4819 9.76382 12.3695 10.1063 12.2751 10.3342C12.1499 10.6361 12.0005 10.8516 11.7591 11.0779C11.5177 11.3042 11.2879 11.4444 10.966 11.5617C10.7229 11.6503 10.3577 11.7556 9.68513 11.7844C8.95789 11.8155 8.73975 11.8221 6.89783 11.8221C5.05589 11.8221 4.83777 11.8155 4.11051 11.7844C3.43798 11.7556 3.07274 11.6503 2.82968 11.5617C2.50771 11.4444 2.27793 11.3042 2.03657 11.0779C1.7952 10.8516 1.6457 10.6361 1.52057 10.3342C1.42611 10.1063 1.31374 9.76382 1.28307 9.1332C1.24988 8.45119 1.24285 8.24662 1.24285 6.51964C1.24285 4.79264 1.24988 4.58807 1.28307 3.90605C1.31374 3.27544 1.42611 2.93297 1.52057 2.70506C1.6457 2.40316 1.79518 2.1877 2.03657 1.96138C2.27793 1.73504 2.50771 1.59488 2.82968 1.47755C3.07274 1.38898 3.43798 1.28361 4.11051 1.25485C4.83786 1.22374 5.05603 1.21714 6.89783 1.21714Z" fill="#464646"/>
<path fill-rule="evenodd" clip-rule="evenodd" d="M6.8997 8.71778C5.60395 8.71778 4.55357 7.73287 4.55357 6.51792C4.55357 5.30294 5.60395 4.31803 6.8997 4.31803C8.19541 4.31803 9.2458 5.30294 9.2458 6.51792C9.2458 7.73287 8.19541 8.71778 6.8997 8.71778ZM6.8997 3.12891C4.90356 3.12891 3.2854 4.6462 3.2854 6.51792C3.2854 8.38961 4.90356 9.9069 6.8997 9.9069C8.89581 9.9069 10.514 8.38961 10.514 6.51792C10.514 4.6462 8.89581 3.12891 6.8997 3.12891Z" fill="#464646"/>
<path fill-rule="evenodd" clip-rule="evenodd" d="M11.8284 3.44098C11.8284 3.95419 11.387 4.3702 10.8426 4.3702C10.2983 4.3702 9.85693 3.95419 9.85693 3.44098C9.85693 2.92777 10.2983 2.51172 10.8426 2.51172C11.387 2.51172 11.8284 2.92777 11.8284 3.44098Z" fill="#464646"/>
</svg>
