<svg width="16" height="12" viewBox="0 0 16 12" fill="none" xmlns="http://www.w3.org/2000/svg">
<path d="M5.60513 11.6265C11.2611 11.6265 14.3547 7.15947 14.3547 3.28569C14.3547 3.15881 14.3547 3.03251 14.3457 2.90677C14.9476 2.4918 15.4671 1.97798 15.8799 1.38938C15.3187 1.62645 14.7233 1.78192 14.1137 1.8506C14.7556 1.48424 15.2361 0.908029 15.4656 0.22919C14.862 0.570649 14.2016 0.811292 13.513 0.940735C12.5598 -0.0254837 11.0451 -0.261969 9.81838 0.363887C8.59163 0.989742 7.95786 2.32229 8.27245 3.61432C5.79992 3.49616 3.49626 2.38287 1.93479 0.551529C1.1186 1.89097 1.53549 3.60452 2.88685 4.46474C2.39747 4.45092 1.91877 4.32507 1.49113 4.09783C1.49113 4.10983 1.49113 4.1224 1.49113 4.13497C1.49154 5.5304 2.52338 6.73228 3.95821 7.00859C3.50549 7.12629 3.03048 7.14349 2.56969 7.05888C2.97255 8.25304 4.12703 9.07109 5.44266 9.09465C4.35375 9.91045 3.00859 10.3533 1.62363 10.352C1.37896 10.3515 1.13453 10.3374 0.891602 10.3097C2.29789 11.17 3.93418 11.6263 5.60513 11.6242" fill="#464646"/>
</svg>
