<svg width="14" height="13" viewBox="0 0 14 13" fill="none" xmlns="http://www.w3.org/2000/svg">
<path d="M3.14013 4.5752H0.380127V12.9861H3.14013V4.5752Z" fill="#464646"/>
<path d="M11.3079 4.67383C11.2769 4.66466 11.2475 4.65472 11.2149 4.64631C11.1758 4.63789 11.1366 4.63101 11.0967 4.6249C10.9417 4.59584 10.7721 4.5752 10.5731 4.5752C8.8721 4.5752 7.79325 5.73513 7.43771 6.1832V4.5752H4.52002V12.9861H7.43771V8.39832C7.43771 8.39832 9.6427 5.51874 10.5731 7.6337C10.5731 9.52155 10.5731 12.9861 10.5731 12.9861H13.49V7.31026C13.49 6.03945 12.5612 4.98045 11.3079 4.67383Z" fill="#464646"/>
<path d="M1.76013 3.29161C2.52228 3.29161 3.14013 2.70997 3.14013 1.99248C3.14013 1.275 2.52228 0.693359 1.76013 0.693359C0.997974 0.693359 0.380127 1.275 0.380127 1.99248C0.380127 2.70997 0.997974 3.29161 1.76013 3.29161Z" fill="#464646"/>
</svg>
