<svg width="16" height="14" viewBox="0 0 16 14" fill="none" xmlns="http://www.w3.org/2000/svg">
<path d="M15.6826 10.1926C13.6163 9.87375 12.6851 7.88917 12.6474 7.80493C12.6445 7.7995 12.6426 7.79407 12.6387 7.78863C12.5334 7.58755 12.5083 7.42179 12.5663 7.29588C12.6793 7.0477 13.1121 6.91908 13.398 6.83393C13.4811 6.80948 13.5593 6.78592 13.6241 6.76237C13.9061 6.65821 14.107 6.54499 14.2404 6.41727C14.3988 6.26419 14.4297 6.11746 14.4278 6.02235C14.4229 5.79047 14.2336 5.58395 13.9312 5.4834C13.8298 5.44446 13.7129 5.42362 13.5951 5.42362C13.5149 5.42362 13.3951 5.43359 13.2821 5.4834C13.0406 5.58938 12.8242 5.64735 12.6378 5.6555C12.5392 5.65098 12.4697 5.63105 12.4243 5.61203C12.4301 5.52145 12.4359 5.42815 12.4426 5.33214L12.4455 5.29047C12.5122 4.30951 12.5943 3.08941 12.2485 2.36478C12.0118 1.86841 11.694 1.44179 11.3028 1.09578C10.9753 0.805924 10.5947 0.570419 10.1716 0.396509C9.43644 0.0921643 8.75058 0.046875 8.40669 0.046875H8.40572C8.3922 0.046875 8.37964 0.046875 8.36805 0.046875C8.27241 0.0477808 8.11689 0.0495924 8.1024 0.0495924C7.75947 0.0495924 7.07263 0.0948817 6.33557 0.399226C5.91343 0.573137 5.53476 0.807736 5.20825 1.09759C4.81895 1.4436 4.5021 1.86932 4.2664 2.36388C3.92057 3.0876 4.00268 4.30769 4.06837 5.28775V5.28957C4.07513 5.39464 4.08286 5.50424 4.08962 5.61112C4.03939 5.63195 3.95728 5.6555 3.83653 5.6555C3.6414 5.6555 3.40956 5.59753 3.14777 5.4825C3.07049 5.44898 2.98259 5.43177 2.88599 5.43177C2.73046 5.43177 2.56528 5.47435 2.42327 5.55315C2.2436 5.65188 2.12768 5.79047 2.0958 5.94536C2.07551 6.0468 2.07648 6.24879 2.31605 6.4535C2.44839 6.56582 2.64159 6.66998 2.89178 6.76237C2.95747 6.78683 3.03572 6.80948 3.11783 6.83393C3.40376 6.91908 3.8375 7.0477 3.95052 7.29588C4.00751 7.42179 3.9824 7.58755 3.8771 7.78863C3.8742 7.79407 3.87131 7.7995 3.86937 7.80493C3.84233 7.86291 3.596 8.38373 3.09078 8.93355C2.80388 9.24604 2.488 9.50781 2.15183 9.71071C1.74128 9.95889 1.29788 10.1201 0.833236 10.1917C0.650662 10.2198 0.520253 10.3719 0.530879 10.5449C0.533777 10.5948 0.546335 10.6446 0.568553 10.6926V10.6935C0.642935 10.8556 0.813916 10.9924 1.09212 11.1129C1.43216 11.2605 1.94027 11.3846 2.60392 11.4815C2.63773 11.5413 2.6725 11.6908 2.69665 11.7931C2.72177 11.9018 2.74785 12.0141 2.78552 12.1328C2.8261 12.2614 2.93042 12.4154 3.19994 12.4154C3.30233 12.4154 3.41922 12.3936 3.55542 12.3692C3.75442 12.333 4.02683 12.2831 4.3659 12.2831C4.55427 12.2831 4.7494 12.2985 4.9455 12.3293C5.32417 12.3882 5.65068 12.6038 6.02838 12.8538C6.58094 13.2197 7.2069 13.6337 8.16326 13.6337C8.18934 13.6337 8.21542 13.6328 8.2415 13.631C8.27241 13.6328 8.31202 13.6337 8.35259 13.6337C9.30893 13.6337 9.9349 13.2197 10.4875 12.8547L10.4884 12.8538C10.8661 12.6047 11.1926 12.3891 11.5713 12.3302C11.7674 12.2994 11.9625 12.284 12.1509 12.284C12.4755 12.284 12.7324 12.323 12.9614 12.3647C13.1111 12.3918 13.227 12.4054 13.3169 12.4054H13.3256H13.3343C13.5313 12.4054 13.6762 12.304 13.7313 12.1273C13.768 12.0105 13.7941 11.9018 13.8201 11.7904C13.8424 11.6944 13.8791 11.5404 13.9119 11.4806C14.5756 11.3828 15.0837 11.2596 15.4237 11.112C15.7009 10.9915 15.8719 10.8547 15.9463 10.6935C15.9685 10.6455 15.9821 10.5957 15.985 10.544C15.9956 10.3728 15.8652 10.2198 15.6826 10.1926Z" fill="#464646"/>
</svg>
