<svg width="17" height="12" viewBox="0 0 17 12" fill="none" xmlns="http://www.w3.org/2000/svg">
<path d="M14.1977 0.341797H3.24265C2.49939 0.341797 1.78657 0.62506 1.26101 1.12927C0.735444 1.63348 0.440186 2.31734 0.440186 3.03041V8.65201C0.440186 9.36512 0.735444 10.0489 1.26101 10.5532C1.78657 11.0574 2.49939 11.3406 3.24265 11.3406H14.1977C14.9409 11.3406 15.6538 11.0574 16.1794 10.5532C16.7049 10.0489 17.0002 9.36512 17.0002 8.65201V3.03041C17.0002 2.31734 16.7049 1.63348 16.1794 1.12927C15.6538 0.62506 14.9409 0.341797 14.1977 0.341797ZM11.9634 5.94876L6.9954 8.39295C6.97605 8.40259 6.95446 8.40725 6.9327 8.40661C6.91092 8.40589 6.88969 8.39988 6.87104 8.38914C6.85238 8.37833 6.83692 8.36313 6.82613 8.34495C6.81534 8.32683 6.80959 8.30632 6.80941 8.28542V3.39703C6.80959 3.37613 6.81534 3.35563 6.82613 3.33748C6.83692 3.31931 6.85238 3.30412 6.87104 3.29333C6.88969 3.28254 6.91092 3.27652 6.9327 3.27585C6.95446 3.27518 6.97605 3.27987 6.9954 3.28949L11.9634 5.73368C11.9842 5.74393 12.0017 5.75951 12.014 5.7787C12.0262 5.79789 12.0327 5.81995 12.0327 5.84244C12.0327 5.86493 12.0262 5.88699 12.014 5.90619C12.0017 5.92538 11.9842 5.94095 11.9634 5.95121V5.94876Z" fill="#464646"/>
</svg>
