<svg width="15" height="16" viewBox="0 0 15 16" fill="none" xmlns="http://www.w3.org/2000/svg">
<path d="M0.398598 6.41847C0.134631 5.70637 -0.0495313 4.97279 0.0118563 4.21772C0.0517582 3.74811 0.235921 3.34295 0.582761 2.99611C0.951086 2.62778 1.31634 2.26253 1.68467 1.8942C2.1727 1.42459 2.78657 1.42459 3.25312 1.8942C3.56006 2.17966 3.84551 2.48659 4.14938 2.79046C4.43483 3.07591 4.72028 3.36137 5.02415 3.66523C5.53367 4.17475 5.53367 4.76714 5.02415 5.27666C4.65583 5.64498 4.31205 6.01024 3.92224 6.35708C3.82095 6.45837 3.82095 6.51976 3.86086 6.64253C4.10641 7.23492 4.45325 7.74444 4.83999 8.23247C5.63496 9.2116 6.53122 10.068 7.59015 10.7401C7.81422 10.8813 8.07818 10.9857 8.30225 11.1269C8.42502 11.1883 8.50483 11.1668 8.60918 11.0655C8.97751 10.6972 9.34277 10.3319 9.71109 9.9636C10.1991 9.47557 10.813 9.47557 11.2795 9.9636C11.8719 10.556 12.4613 11.1453 13.0536 11.7377C13.5417 12.2257 13.5417 12.8396 13.0536 13.3491C12.7283 13.696 12.36 13.9998 12.0561 14.3682C11.5865 14.8777 11.0156 15.0618 10.3434 15.0189C9.40722 14.9575 8.52938 14.6321 7.67302 14.2239C5.77922 13.3061 4.14631 12.0231 2.7835 10.3933C1.78596 9.19011 0.948017 7.90711 0.398598 6.41847Z" fill="black"/>
<path d="M12.3575 4.51812V5.28854V6.2247C12.3575 6.74342 11.937 7.16086 11.4213 7.16086C10.9026 7.16086 10.4852 6.74035 10.4852 6.2247V5.28854V4.51812H9.71168H8.77552C8.25679 4.51812 7.83936 4.09762 7.83936 3.58196C7.83936 3.06324 8.25986 2.6458 8.77552 2.6458H9.71168H10.4821V0.93616C10.4821 0.417435 10.9026 0 11.4183 0C11.937 0 12.3544 0.420505 12.3544 0.93616V2.6458H14.0641C14.5828 2.6458 15.0002 3.06631 15.0002 3.58196C15.0002 4.10069 14.5797 4.51812 14.0641 4.51812H12.3575Z" fill="black"/>
</svg>
