<svg width="17" height="17" viewBox="0 0 17 17" fill="none" xmlns="http://www.w3.org/2000/svg">
<path d="M4.74609 8.50066C4.74874 9.28569 4.84706 10.0675 5.03887 10.8287H8.09887V6.35205H4.99637C4.83313 7.05669 4.74919 7.77737 4.74609 8.50066V8.50066Z" fill="black"/>
<path d="M8.90039 6.35205V10.8287H11.9604C12.1602 10.0685 12.2664 9.28666 12.2768 8.50066C12.2752 7.77755 12.1929 7.05687 12.0312 6.35205H8.90039Z" fill="black"/>
<path d="M8.4999 0.944336C7.00555 0.944336 5.54476 1.38746 4.30225 2.21768C3.05975 3.04789 2.09133 4.22791 1.51947 5.60851C0.94761 6.9891 0.797984 8.50827 1.08952 9.97391C1.38105 11.4395 2.10065 12.7858 3.15731 13.8425C4.21397 14.8991 5.56025 15.6187 7.02588 15.9103C8.49151 16.2018 10.0107 16.0522 11.3913 15.4803C12.7719 14.9085 13.9519 13.94 14.7821 12.6975C15.6123 11.455 16.0555 9.99424 16.0555 8.49989C16.0555 6.49603 15.2594 4.57425 13.8425 3.15731C12.4255 1.74037 10.5038 0.944336 8.4999 0.944336V0.944336ZM14.2705 11.6685H12.561C12.2378 12.6804 11.7599 13.6361 11.1443 14.5018C10.6901 14.6998 10.2148 14.8456 9.72767 14.9363C10.6001 13.9883 11.2715 12.8735 11.7016 11.6591H8.90601V15.0354C8.76906 15.0354 8.63684 15.0354 8.4999 15.0354C8.36295 15.0354 8.24017 15.0354 8.10795 15.0354V11.6685H5.29823C5.72767 12.8846 6.39915 14.0011 7.27212 14.9504C6.79501 14.8607 6.32937 14.7182 5.88378 14.5254C5.26603 13.6525 4.78808 12.6886 4.46712 11.6685H2.72934C2.57848 11.3933 2.4475 11.1077 2.33739 10.8138H4.22628C4.04929 10.0551 3.95743 9.27897 3.95239 8.49989C3.95266 7.77773 4.02863 7.05759 4.17906 6.35128H2.24767C2.34698 6.05826 2.46691 5.77264 2.60656 5.49656H4.40573C4.74332 4.37222 5.26686 3.31237 5.95462 2.361C6.39075 2.18029 6.84515 2.04729 7.3099 1.96434C6.37049 2.97255 5.66152 4.17296 5.23212 5.48239H8.10795V1.88878C8.24017 1.88878 8.36767 1.88878 8.4999 1.88878C8.63212 1.88878 8.77378 1.88878 8.90601 1.88878V5.49656H11.7818C11.3532 4.18923 10.6459 2.99052 9.70878 1.98322C10.1728 2.0602 10.6272 2.18685 11.0641 2.361C11.7478 3.30549 12.2697 4.35717 12.6082 5.47295H14.3885C14.5281 5.74903 14.6481 6.03465 14.7474 6.32767H12.8302C12.9838 7.04153 13.0614 7.76968 13.0616 8.49989C13.0591 9.28353 12.9688 10.0644 12.7924 10.8279H14.6813C14.5644 11.1175 14.4272 11.3984 14.2705 11.6685Z" fill="black"/>
</svg>
