<svg width="15" height="11" viewBox="0 0 15 11" fill="none" xmlns="http://www.w3.org/2000/svg">
<path d="M0.709783 0.0755516C0.827621 0.0291263 0.953708 0 1.08696 0H13.913C14.0463 0 14.1724 0.0291263 14.2902 0.0755856L8.54348 5.83083C7.95847 6.41713 7.04172 6.41713 6.45652 5.83083L0.709783 0.0755516ZM14.8398 10.3028C14.9393 10.1282 15 9.92557 15 9.7065V1.15554C15 1.00025 14.9702 0.852547 14.9178 0.717146L9.53999 6.10282L14.8398 10.3028ZM9.05371 6.58193C8.60739 6.98844 8.05457 7.1946 7.5 7.1946C6.94543 7.1946 6.39258 6.98864 5.94629 6.58193L3.3039 8.67588L0.661509 10.7698C0.792391 10.829 0.93587 10.8621 1.08696 10.8621H13.913C14.0641 10.8621 14.2076 10.829 14.3385 10.7698L9.05371 6.58193ZM0.0821931 0.717112C0.0297954 0.852547 0 1.00022 0 1.15554V9.7065C0 9.92557 0.0606458 10.1282 0.16023 10.3028L5.46001 6.10282L0.0821931 0.717112Z" fill="black"/>
</svg>
