<svg width="34" height="34" viewBox="0 0 34 34" fill="none" xmlns="http://www.w3.org/2000/svg">
<circle cx="17" cy="17" r="17" fill="#FE0000"/>
<path fill-rule="evenodd" clip-rule="evenodd" d="M8.53646 9.50684C8.24018 9.50684 8 9.73326 8 10.0126V10.3937C8 10.6731 8.24018 10.8995 8.53646 10.8995H9.78314C9.98682 10.8995 10.1729 11.0082 10.2636 11.1802L10.9388 12.6328C10.9641 12.6806 10.9839 12.7354 11.0213 12.7718L13.9219 19.2937C13.893 19.3067 13.8654 19.3224 13.8393 19.341C13.0357 19.9145 12.492 20.653 12.4919 21.3961C12.4919 21.8286 12.6834 22.2328 13.0673 22.512C13.4318 22.777 13.9084 22.8863 14.42 22.8863H14.4369C14.1043 23.2152 13.9002 23.6606 13.9002 24.1509C13.9002 25.1634 14.7708 25.9842 15.8448 25.9842C16.9188 25.9842 17.7895 25.1634 17.7895 24.1509C17.7895 23.6606 17.5854 23.2152 17.2528 22.8863H19.8015C19.469 23.2152 19.2648 23.6606 19.2648 24.1509C19.2648 25.1634 20.1354 25.9842 21.2095 25.9842C22.2835 25.9842 23.1542 25.1634 23.1542 24.1509C23.1542 23.6606 22.95 23.2152 22.6174 22.8863H23.02C23.3163 22.8863 23.5565 22.6599 23.5565 22.3806V22.1277C23.5565 21.8483 23.3163 21.6219 23.02 21.6219H14.42C14.0933 21.6219 13.9411 21.5506 13.8864 21.5108C13.8511 21.4852 13.8331 21.4604 13.8331 21.3962C13.8331 21.2258 13.9965 20.8323 14.5836 20.3963C14.6093 20.3771 14.6335 20.3561 14.6556 20.3337C14.7145 20.3495 14.7761 20.3579 14.8393 20.3579H22.9884C23.3162 20.3579 23.596 20.1345 23.6499 19.8296L24.9907 12.2436C25.0588 11.8583 24.7436 11.5075 24.3293 11.5075H12.1547C12.0526 11.5075 11.9598 11.4499 11.9171 11.3599L11.1709 9.78751C11.0803 9.61557 10.8942 9.50684 10.6905 9.50684H8.53646ZM12.8886 12.7718C12.7008 12.7718 12.5742 12.9579 12.6482 13.1252L15.2185 18.9398C15.2597 19.0331 15.3542 19.0935 15.4588 19.0935H22.1998C22.3272 19.0935 22.4361 19.0046 22.4576 18.8828L23.4853 13.0681C23.5127 12.9133 23.3896 12.7718 23.2275 12.7718H12.8886ZM15.1072 24.1509C15.1072 23.7668 15.4374 23.4555 15.8448 23.4555C16.2522 23.4555 16.5824 23.7668 16.5824 24.1509C16.5824 24.5349 16.2522 24.8463 15.8448 24.8463C15.4374 24.8463 15.1072 24.5349 15.1072 24.1509ZM21.2095 23.4555C20.8021 23.4555 20.4718 23.7668 20.4718 24.1509C20.4718 24.5349 20.8021 24.8463 21.2095 24.8463C21.6169 24.8463 21.9471 24.5349 21.9471 24.1509C21.9471 23.7668 21.6169 23.4555 21.2095 23.4555Z" fill="white"/>
</svg>
