<svg width="198" height="32" viewBox="0 0 198 32" fill="none" xmlns="http://www.w3.org/2000/svg">
<path d="M5.87207 12.373L2.89844 21H1.10059L4.84668 11.0469H5.99512L5.87207 12.373ZM8.36035 21L5.37988 12.373L5.25 11.0469H6.40527L10.165 21H8.36035ZM8.2168 17.3086V18.6689H2.80273V17.3086H8.2168ZM12.8789 10.5V21H11.2246V10.5H12.8789ZM16.3379 15.0117V21H14.6904V13.6035H16.2627L16.3379 15.0117ZM18.6006 13.5557L18.5869 15.0869C18.4867 15.0687 18.3773 15.055 18.2588 15.0459C18.1449 15.0368 18.0309 15.0322 17.917 15.0322C17.6344 15.0322 17.3861 15.0732 17.1719 15.1553C16.9577 15.2327 16.7777 15.3467 16.6318 15.4971C16.4906 15.6429 16.3812 15.8206 16.3037 16.0303C16.2262 16.2399 16.1807 16.4746 16.167 16.7344L15.791 16.7617C15.791 16.2969 15.8366 15.8662 15.9277 15.4697C16.0189 15.0732 16.1556 14.7246 16.3379 14.4238C16.5247 14.123 16.7572 13.8883 17.0352 13.7197C17.3177 13.5511 17.6436 13.4668 18.0127 13.4668C18.113 13.4668 18.2201 13.4759 18.334 13.4941C18.4525 13.5124 18.5413 13.5329 18.6006 13.5557ZM22.7568 21.1367C22.21 21.1367 21.7155 21.0479 21.2734 20.8701C20.8359 20.6878 20.4622 20.4349 20.1523 20.1113C19.847 19.7878 19.6123 19.4072 19.4482 18.9697C19.2842 18.5322 19.2021 18.0605 19.2021 17.5547V17.2812C19.2021 16.7025 19.2865 16.1784 19.4551 15.709C19.6237 15.2396 19.8584 14.8385 20.1592 14.5059C20.46 14.1686 20.8154 13.9111 21.2256 13.7334C21.6357 13.5557 22.0801 13.4668 22.5586 13.4668C23.0872 13.4668 23.5498 13.5557 23.9463 13.7334C24.3428 13.9111 24.6709 14.1618 24.9307 14.4854C25.195 14.8044 25.391 15.1849 25.5186 15.627C25.6507 16.069 25.7168 16.5566 25.7168 17.0898V17.7939H20.002V16.6113H24.0898V16.4814C24.0807 16.1852 24.0215 15.9072 23.9121 15.6475C23.8073 15.3877 23.6455 15.1781 23.4268 15.0186C23.208 14.859 22.9163 14.7793 22.5518 14.7793C22.2783 14.7793 22.0345 14.8385 21.8203 14.957C21.6107 15.071 21.4352 15.2373 21.2939 15.4561C21.1527 15.6748 21.0433 15.9391 20.9658 16.249C20.8929 16.5544 20.8564 16.8984 20.8564 17.2812V17.5547C20.8564 17.8783 20.8997 18.179 20.9863 18.457C21.0775 18.7305 21.2096 18.9697 21.3828 19.1748C21.556 19.3799 21.7656 19.5417 22.0117 19.6602C22.2578 19.7741 22.5381 19.8311 22.8525 19.8311C23.249 19.8311 23.6022 19.7513 23.9121 19.5918C24.222 19.4323 24.4909 19.2067 24.7188 18.915L25.5869 19.7559C25.4274 19.9883 25.2201 20.2116 24.9648 20.4258C24.7096 20.6354 24.3975 20.8063 24.0283 20.9385C23.6637 21.0706 23.2399 21.1367 22.7568 21.1367ZM31.1719 19.5166V15.9893C31.1719 15.7249 31.124 15.4971 31.0283 15.3057C30.9326 15.1143 30.7868 14.9661 30.5908 14.8613C30.3994 14.7565 30.1579 14.7041 29.8662 14.7041C29.5973 14.7041 29.3649 14.7497 29.1689 14.8408C28.973 14.932 28.8203 15.055 28.7109 15.21C28.6016 15.3649 28.5469 15.5404 28.5469 15.7363H26.9062C26.9062 15.4447 26.9769 15.1621 27.1182 14.8887C27.2594 14.6152 27.4645 14.3714 27.7334 14.1572C28.0023 13.943 28.3236 13.7744 28.6973 13.6514C29.071 13.5283 29.4902 13.4668 29.9551 13.4668C30.5111 13.4668 31.0033 13.5602 31.4316 13.7471C31.8646 13.9339 32.2041 14.2165 32.4502 14.5947C32.7008 14.9684 32.8262 15.4378 32.8262 16.0029V19.291C32.8262 19.6283 32.849 19.9313 32.8945 20.2002C32.9447 20.4645 33.0153 20.6947 33.1064 20.8906V21H31.418C31.3405 20.8223 31.279 20.5967 31.2334 20.3232C31.1924 20.0452 31.1719 19.7764 31.1719 19.5166ZM31.4111 16.502L31.4248 17.5205H30.2422C29.9368 17.5205 29.668 17.5501 29.4355 17.6094C29.2031 17.6641 29.0094 17.7461 28.8545 17.8555C28.6995 17.9648 28.5833 18.097 28.5059 18.252C28.4284 18.4069 28.3896 18.5824 28.3896 18.7783C28.3896 18.9743 28.4352 19.1543 28.5264 19.3184C28.6175 19.4779 28.7497 19.6032 28.9229 19.6943C29.1006 19.7855 29.3148 19.8311 29.5654 19.8311C29.9027 19.8311 30.1966 19.7627 30.4473 19.626C30.7025 19.4847 30.903 19.3138 31.0488 19.1133C31.1947 18.9082 31.2721 18.7145 31.2812 18.5322L31.8145 19.2637C31.7598 19.4505 31.6663 19.651 31.5342 19.8652C31.402 20.0794 31.2288 20.2845 31.0146 20.4805C30.805 20.6719 30.5521 20.8291 30.2559 20.9521C29.9642 21.0752 29.627 21.1367 29.2441 21.1367C28.7611 21.1367 28.3304 21.041 27.9521 20.8496C27.5739 20.6536 27.2777 20.3916 27.0635 20.0635C26.8493 19.7308 26.7422 19.3548 26.7422 18.9355C26.7422 18.5436 26.8151 18.1973 26.9609 17.8965C27.1113 17.5911 27.3301 17.3359 27.6172 17.1309C27.9089 16.9258 28.2643 16.7708 28.6836 16.666C29.1029 16.5566 29.5814 16.502 30.1191 16.502H31.4111ZM39.0605 19.4688V10.5H40.7148V21H39.2178L39.0605 19.4688ZM34.248 17.3838V17.2402C34.248 16.6797 34.3141 16.1693 34.4463 15.709C34.5785 15.2441 34.7699 14.8454 35.0205 14.5127C35.2712 14.1755 35.5765 13.918 35.9365 13.7402C36.2965 13.5579 36.7021 13.4668 37.1533 13.4668C37.5999 13.4668 37.9919 13.5534 38.3291 13.7266C38.6663 13.8997 38.9535 14.1481 39.1904 14.4717C39.4274 14.7907 39.6165 15.1735 39.7578 15.6201C39.8991 16.0622 39.9993 16.5544 40.0586 17.0967V17.5547C39.9993 18.0833 39.8991 18.5664 39.7578 19.0039C39.6165 19.4414 39.4274 19.8197 39.1904 20.1387C38.9535 20.4577 38.6641 20.7038 38.3223 20.877C37.985 21.0501 37.5908 21.1367 37.1396 21.1367C36.693 21.1367 36.2897 21.0433 35.9297 20.8564C35.5742 20.6696 35.2712 20.4076 35.0205 20.0703C34.7699 19.7331 34.5785 19.3366 34.4463 18.8809C34.3141 18.4206 34.248 17.9215 34.248 17.3838ZM35.8955 17.2402V17.3838C35.8955 17.721 35.9251 18.0355 35.9844 18.3271C36.0482 18.6188 36.1462 18.8763 36.2783 19.0996C36.4105 19.3184 36.5814 19.4915 36.791 19.6191C37.0052 19.7422 37.2604 19.8037 37.5566 19.8037C37.9303 19.8037 38.238 19.7217 38.4795 19.5576C38.721 19.3936 38.9102 19.1725 39.0469 18.8945C39.1882 18.612 39.2839 18.2975 39.334 17.9512V16.7139C39.3066 16.445 39.2497 16.1943 39.1631 15.9619C39.0811 15.7295 38.9694 15.5267 38.8281 15.3535C38.6868 15.1758 38.5114 15.0391 38.3018 14.9434C38.0967 14.8431 37.8529 14.793 37.5703 14.793C37.2695 14.793 37.0143 14.8568 36.8047 14.9844C36.5951 15.112 36.4219 15.2874 36.2852 15.5107C36.153 15.734 36.055 15.9938 35.9912 16.29C35.9274 16.5863 35.8955 16.903 35.8955 17.2402ZM44.584 20.1934L46.5938 13.6035H48.3574L45.3906 22.1279C45.3223 22.3102 45.2334 22.5085 45.124 22.7227C45.0146 22.9368 44.8711 23.1396 44.6934 23.3311C44.5202 23.527 44.3037 23.6842 44.0439 23.8027C43.7842 23.9258 43.4697 23.9873 43.1006 23.9873C42.9548 23.9873 42.8135 23.9736 42.6768 23.9463C42.5446 23.9235 42.4193 23.8984 42.3008 23.8711L42.2939 22.6133C42.3395 22.6178 42.3942 22.6224 42.458 22.627C42.5264 22.6315 42.5811 22.6338 42.6221 22.6338C42.8955 22.6338 43.1234 22.5996 43.3057 22.5312C43.488 22.4674 43.6361 22.3626 43.75 22.2168C43.8685 22.071 43.9688 21.875 44.0508 21.6289L44.584 20.1934ZM43.4492 13.6035L45.2061 19.1406L45.5 20.877L44.3584 21.1709L41.6719 13.6035H43.4492ZM54.4141 10.5V21H52.7734V10.5H54.4141ZM54.127 17.0283L53.5938 17.0215C53.5983 16.5111 53.6689 16.0394 53.8057 15.6064C53.9469 15.1735 54.1429 14.7975 54.3936 14.4785C54.6488 14.1549 54.9541 13.9066 55.3096 13.7334C55.665 13.5557 56.0592 13.4668 56.4922 13.4668C56.8568 13.4668 57.1849 13.5169 57.4766 13.6172C57.7728 13.7174 58.028 13.8792 58.2422 14.1025C58.4564 14.3213 58.6182 14.6084 58.7275 14.9639C58.8415 15.3148 58.8984 15.7432 58.8984 16.249V21H57.2441V16.2354C57.2441 15.8799 57.1917 15.5973 57.0869 15.3877C56.9867 15.1781 56.8385 15.0277 56.6426 14.9365C56.4466 14.8408 56.2074 14.793 55.9248 14.793C55.6286 14.793 55.3665 14.8522 55.1387 14.9707C54.9154 15.0892 54.7285 15.251 54.5781 15.4561C54.4277 15.6611 54.3138 15.8981 54.2363 16.167C54.1634 16.4359 54.127 16.723 54.127 17.0283ZM64.7363 19.5166V15.9893C64.7363 15.7249 64.6885 15.4971 64.5928 15.3057C64.4971 15.1143 64.3512 14.9661 64.1553 14.8613C63.9639 14.7565 63.7223 14.7041 63.4307 14.7041C63.1618 14.7041 62.9294 14.7497 62.7334 14.8408C62.5374 14.932 62.3848 15.055 62.2754 15.21C62.166 15.3649 62.1113 15.5404 62.1113 15.7363H60.4707C60.4707 15.4447 60.5413 15.1621 60.6826 14.8887C60.8239 14.6152 61.029 14.3714 61.2979 14.1572C61.5667 13.943 61.888 13.7744 62.2617 13.6514C62.6354 13.5283 63.0547 13.4668 63.5195 13.4668C64.0755 13.4668 64.5677 13.5602 64.9961 13.7471C65.429 13.9339 65.7686 14.2165 66.0146 14.5947C66.2653 14.9684 66.3906 15.4378 66.3906 16.0029V19.291C66.3906 19.6283 66.4134 19.9313 66.459 20.2002C66.5091 20.4645 66.5798 20.6947 66.6709 20.8906V21H64.9824C64.9049 20.8223 64.8434 20.5967 64.7979 20.3232C64.7568 20.0452 64.7363 19.7764 64.7363 19.5166ZM64.9756 16.502L64.9893 17.5205H63.8066C63.5013 17.5205 63.2324 17.5501 63 17.6094C62.7676 17.6641 62.5739 17.7461 62.4189 17.8555C62.264 17.9648 62.1478 18.097 62.0703 18.252C61.9928 18.4069 61.9541 18.5824 61.9541 18.7783C61.9541 18.9743 61.9997 19.1543 62.0908 19.3184C62.182 19.4779 62.3141 19.6032 62.4873 19.6943C62.665 19.7855 62.8792 19.8311 63.1299 19.8311C63.4671 19.8311 63.7611 19.7627 64.0117 19.626C64.2669 19.4847 64.4674 19.3138 64.6133 19.1133C64.7591 18.9082 64.8366 18.7145 64.8457 18.5322L65.3789 19.2637C65.3242 19.4505 65.2308 19.651 65.0986 19.8652C64.9665 20.0794 64.7933 20.2845 64.5791 20.4805C64.3695 20.6719 64.1165 20.8291 63.8203 20.9521C63.5286 21.0752 63.1914 21.1367 62.8086 21.1367C62.3255 21.1367 61.8949 21.041 61.5166 20.8496C61.1383 20.6536 60.8421 20.3916 60.6279 20.0635C60.4137 19.7308 60.3066 19.3548 60.3066 18.9355C60.3066 18.5436 60.3796 18.1973 60.5254 17.8965C60.6758 17.5911 60.8945 17.3359 61.1816 17.1309C61.4733 16.9258 61.8288 16.7708 62.248 16.666C62.6673 16.5566 63.1458 16.502 63.6836 16.502H64.9756ZM70.4102 19.6943L72.2217 13.6035H73.9307L71.3604 21H70.2939L70.4102 19.6943ZM69.0225 13.6035L70.8682 19.7217L70.957 21H69.8906L67.3066 13.6035H69.0225ZM78.1143 21.1367C77.5674 21.1367 77.0729 21.0479 76.6309 20.8701C76.1934 20.6878 75.8197 20.4349 75.5098 20.1113C75.2044 19.7878 74.9697 19.4072 74.8057 18.9697C74.6416 18.5322 74.5596 18.0605 74.5596 17.5547V17.2812C74.5596 16.7025 74.6439 16.1784 74.8125 15.709C74.9811 15.2396 75.2158 14.8385 75.5166 14.5059C75.8174 14.1686 76.1729 13.9111 76.583 13.7334C76.9932 13.5557 77.4375 13.4668 77.916 13.4668C78.4447 13.4668 78.9072 13.5557 79.3037 13.7334C79.7002 13.9111 80.0283 14.1618 80.2881 14.4854C80.5524 14.8044 80.7484 15.1849 80.876 15.627C81.0081 16.069 81.0742 16.5566 81.0742 17.0898V17.7939H75.3594V16.6113H79.4473V16.4814C79.4382 16.1852 79.3789 15.9072 79.2695 15.6475C79.1647 15.3877 79.0029 15.1781 78.7842 15.0186C78.5654 14.859 78.2738 14.7793 77.9092 14.7793C77.6357 14.7793 77.3919 14.8385 77.1777 14.957C76.9681 15.071 76.7926 15.2373 76.6514 15.4561C76.5101 15.6748 76.4007 15.9391 76.3232 16.249C76.2503 16.5544 76.2139 16.8984 76.2139 17.2812V17.5547C76.2139 17.8783 76.2572 18.179 76.3438 18.457C76.4349 18.7305 76.5671 18.9697 76.7402 19.1748C76.9134 19.3799 77.123 19.5417 77.3691 19.6602C77.6152 19.7741 77.8955 19.8311 78.21 19.8311C78.6064 19.8311 78.9596 19.7513 79.2695 19.5918C79.5794 19.4323 79.8483 19.2067 80.0762 18.915L80.9443 19.7559C80.7848 19.9883 80.5775 20.2116 80.3223 20.4258C80.0671 20.6354 79.7549 20.8063 79.3857 20.9385C79.0212 21.0706 78.5973 21.1367 78.1143 21.1367ZM90.0156 19.5166V15.9893C90.0156 15.7249 89.9678 15.4971 89.8721 15.3057C89.7764 15.1143 89.6305 14.9661 89.4346 14.8613C89.2432 14.7565 89.0016 14.7041 88.71 14.7041C88.4411 14.7041 88.2087 14.7497 88.0127 14.8408C87.8167 14.932 87.6641 15.055 87.5547 15.21C87.4453 15.3649 87.3906 15.5404 87.3906 15.7363H85.75C85.75 15.4447 85.8206 15.1621 85.9619 14.8887C86.1032 14.6152 86.3083 14.3714 86.5771 14.1572C86.846 13.943 87.1673 13.7744 87.541 13.6514C87.9147 13.5283 88.334 13.4668 88.7988 13.4668C89.3548 13.4668 89.847 13.5602 90.2754 13.7471C90.7083 13.9339 91.0479 14.2165 91.2939 14.5947C91.5446 14.9684 91.6699 15.4378 91.6699 16.0029V19.291C91.6699 19.6283 91.6927 19.9313 91.7383 20.2002C91.7884 20.4645 91.859 20.6947 91.9502 20.8906V21H90.2617C90.1842 20.8223 90.1227 20.5967 90.0771 20.3232C90.0361 20.0452 90.0156 19.7764 90.0156 19.5166ZM90.2549 16.502L90.2686 17.5205H89.0859C88.7806 17.5205 88.5117 17.5501 88.2793 17.6094C88.0469 17.6641 87.8532 17.7461 87.6982 17.8555C87.5433 17.9648 87.4271 18.097 87.3496 18.252C87.2721 18.4069 87.2334 18.5824 87.2334 18.7783C87.2334 18.9743 87.279 19.1543 87.3701 19.3184C87.4613 19.4779 87.5934 19.6032 87.7666 19.6943C87.9443 19.7855 88.1585 19.8311 88.4092 19.8311C88.7464 19.8311 89.0404 19.7627 89.291 19.626C89.5462 19.4847 89.7467 19.3138 89.8926 19.1133C90.0384 18.9082 90.1159 18.7145 90.125 18.5322L90.6582 19.2637C90.6035 19.4505 90.5101 19.651 90.3779 19.8652C90.2458 20.0794 90.0726 20.2845 89.8584 20.4805C89.6488 20.6719 89.3958 20.8291 89.0996 20.9521C88.8079 21.0752 88.4707 21.1367 88.0879 21.1367C87.6048 21.1367 87.1742 21.041 86.7959 20.8496C86.4176 20.6536 86.1214 20.3916 85.9072 20.0635C85.693 19.7308 85.5859 19.3548 85.5859 18.9355C85.5859 18.5436 85.6589 18.1973 85.8047 17.8965C85.9551 17.5911 86.1738 17.3359 86.4609 17.1309C86.7526 16.9258 87.1081 16.7708 87.5273 16.666C87.9466 16.5566 88.4251 16.502 88.9629 16.502H90.2549ZM95.0264 15.1826V21H93.3789V13.6035H94.9307L95.0264 15.1826ZM94.7324 17.0283L94.1992 17.0215C94.2038 16.4974 94.2767 16.0166 94.418 15.5791C94.5638 15.1416 94.7643 14.7656 95.0195 14.4512C95.2793 14.1367 95.5892 13.8952 95.9492 13.7266C96.3092 13.5534 96.7103 13.4668 97.1523 13.4668C97.5078 13.4668 97.8291 13.5169 98.1162 13.6172C98.4079 13.7129 98.6562 13.8701 98.8613 14.0889C99.071 14.3076 99.2305 14.5924 99.3398 14.9434C99.4492 15.2897 99.5039 15.7158 99.5039 16.2217V21H97.8496V16.2148C97.8496 15.8594 97.7972 15.5791 97.6924 15.374C97.5921 15.1644 97.444 15.0163 97.248 14.9297C97.0566 14.8385 96.8174 14.793 96.5303 14.793C96.2477 14.793 95.9948 14.8522 95.7715 14.9707C95.5482 15.0892 95.359 15.251 95.2041 15.4561C95.0537 15.6611 94.9375 15.8981 94.8555 16.167C94.7734 16.4359 94.7324 16.723 94.7324 17.0283ZM108.842 19.5166V15.9893C108.842 15.7249 108.794 15.4971 108.698 15.3057C108.603 15.1143 108.457 14.9661 108.261 14.8613C108.069 14.7565 107.828 14.7041 107.536 14.7041C107.267 14.7041 107.035 14.7497 106.839 14.8408C106.643 14.932 106.49 15.055 106.381 15.21C106.271 15.3649 106.217 15.5404 106.217 15.7363H104.576C104.576 15.4447 104.647 15.1621 104.788 14.8887C104.929 14.6152 105.134 14.3714 105.403 14.1572C105.672 13.943 105.993 13.7744 106.367 13.6514C106.741 13.5283 107.16 13.4668 107.625 13.4668C108.181 13.4668 108.673 13.5602 109.102 13.7471C109.535 13.9339 109.874 14.2165 110.12 14.5947C110.371 14.9684 110.496 15.4378 110.496 16.0029V19.291C110.496 19.6283 110.519 19.9313 110.564 20.2002C110.615 20.4645 110.685 20.6947 110.776 20.8906V21H109.088C109.01 20.8223 108.949 20.5967 108.903 20.3232C108.862 20.0452 108.842 19.7764 108.842 19.5166ZM109.081 16.502L109.095 17.5205H107.912C107.607 17.5205 107.338 17.5501 107.105 17.6094C106.873 17.6641 106.679 17.7461 106.524 17.8555C106.369 17.9648 106.253 18.097 106.176 18.252C106.098 18.4069 106.06 18.5824 106.06 18.7783C106.06 18.9743 106.105 19.1543 106.196 19.3184C106.287 19.4779 106.42 19.6032 106.593 19.6943C106.771 19.7855 106.985 19.8311 107.235 19.8311C107.573 19.8311 107.867 19.7627 108.117 19.626C108.372 19.4847 108.573 19.3138 108.719 19.1133C108.865 18.9082 108.942 18.7145 108.951 18.5322L109.484 19.2637C109.43 19.4505 109.336 19.651 109.204 19.8652C109.072 20.0794 108.899 20.2845 108.685 20.4805C108.475 20.6719 108.222 20.8291 107.926 20.9521C107.634 21.0752 107.297 21.1367 106.914 21.1367C106.431 21.1367 106 21.041 105.622 20.8496C105.244 20.6536 104.948 20.3916 104.733 20.0635C104.519 19.7308 104.412 19.3548 104.412 18.9355C104.412 18.5436 104.485 18.1973 104.631 17.8965C104.781 17.5911 105 17.3359 105.287 17.1309C105.579 16.9258 105.934 16.7708 106.354 16.666C106.773 16.5566 107.251 16.502 107.789 16.502H109.081ZM115.24 19.8242C115.509 19.8242 115.751 19.7718 115.965 19.667C116.184 19.5576 116.359 19.4072 116.491 19.2158C116.628 19.0244 116.703 18.8034 116.717 18.5527H118.269C118.259 19.0312 118.118 19.4665 117.845 19.8584C117.571 20.2503 117.209 20.5625 116.758 20.7949C116.307 21.0228 115.808 21.1367 115.261 21.1367C114.696 21.1367 114.203 21.041 113.784 20.8496C113.365 20.6536 113.016 20.3848 112.738 20.043C112.46 19.7012 112.251 19.307 112.109 18.8604C111.973 18.4137 111.904 17.9352 111.904 17.4248V17.1855C111.904 16.6751 111.973 16.1966 112.109 15.75C112.251 15.2988 112.46 14.9023 112.738 14.5605C113.016 14.2188 113.365 13.9521 113.784 13.7607C114.203 13.5648 114.693 13.4668 115.254 13.4668C115.846 13.4668 116.366 13.5853 116.812 13.8223C117.259 14.0547 117.61 14.3805 117.865 14.7998C118.125 15.2145 118.259 15.6976 118.269 16.249H116.717C116.703 15.9756 116.635 15.7295 116.512 15.5107C116.393 15.2874 116.225 15.1097 116.006 14.9775C115.792 14.8454 115.534 14.7793 115.233 14.7793C114.901 14.7793 114.625 14.8477 114.406 14.9844C114.188 15.1165 114.017 15.2988 113.894 15.5312C113.771 15.7591 113.682 16.0166 113.627 16.3037C113.577 16.5863 113.552 16.8802 113.552 17.1855V17.4248C113.552 17.7301 113.577 18.0264 113.627 18.3135C113.677 18.6006 113.764 18.8581 113.887 19.0859C114.014 19.3092 114.188 19.4893 114.406 19.626C114.625 19.7581 114.903 19.8242 115.24 19.8242ZM122.555 19.8242C122.824 19.8242 123.065 19.7718 123.279 19.667C123.498 19.5576 123.674 19.4072 123.806 19.2158C123.942 19.0244 124.018 18.8034 124.031 18.5527H125.583C125.574 19.0312 125.433 19.4665 125.159 19.8584C124.886 20.2503 124.523 20.5625 124.072 20.7949C123.621 21.0228 123.122 21.1367 122.575 21.1367C122.01 21.1367 121.518 21.041 121.099 20.8496C120.679 20.6536 120.331 20.3848 120.053 20.043C119.775 19.7012 119.565 19.307 119.424 18.8604C119.287 18.4137 119.219 17.9352 119.219 17.4248V17.1855C119.219 16.6751 119.287 16.1966 119.424 15.75C119.565 15.2988 119.775 14.9023 120.053 14.5605C120.331 14.2188 120.679 13.9521 121.099 13.7607C121.518 13.5648 122.008 13.4668 122.568 13.4668C123.161 13.4668 123.68 13.5853 124.127 13.8223C124.574 14.0547 124.924 14.3805 125.18 14.7998C125.439 15.2145 125.574 15.6976 125.583 16.249H124.031C124.018 15.9756 123.949 15.7295 123.826 15.5107C123.708 15.2874 123.539 15.1097 123.32 14.9775C123.106 14.8454 122.849 14.7793 122.548 14.7793C122.215 14.7793 121.939 14.8477 121.721 14.9844C121.502 15.1165 121.331 15.2988 121.208 15.5312C121.085 15.7591 120.996 16.0166 120.941 16.3037C120.891 16.5863 120.866 16.8802 120.866 17.1855V17.4248C120.866 17.7301 120.891 18.0264 120.941 18.3135C120.992 18.6006 121.078 18.8581 121.201 19.0859C121.329 19.3092 121.502 19.4893 121.721 19.626C121.939 19.7581 122.217 19.8242 122.555 19.8242ZM126.533 17.3838V17.2266C126.533 16.6934 126.611 16.1989 126.766 15.7432C126.921 15.2829 127.144 14.8841 127.436 14.5469C127.732 14.2051 128.092 13.9408 128.516 13.7539C128.944 13.5625 129.427 13.4668 129.965 13.4668C130.507 13.4668 130.99 13.5625 131.414 13.7539C131.842 13.9408 132.205 14.2051 132.501 14.5469C132.797 14.8841 133.023 15.2829 133.178 15.7432C133.333 16.1989 133.41 16.6934 133.41 17.2266V17.3838C133.41 17.917 133.333 18.4115 133.178 18.8672C133.023 19.3229 132.797 19.7217 132.501 20.0635C132.205 20.4007 131.845 20.665 131.421 20.8564C130.997 21.0433 130.516 21.1367 129.979 21.1367C129.436 21.1367 128.951 21.0433 128.522 20.8564C128.099 20.665 127.739 20.4007 127.442 20.0635C127.146 19.7217 126.921 19.3229 126.766 18.8672C126.611 18.4115 126.533 17.917 126.533 17.3838ZM128.181 17.2266V17.3838C128.181 17.7165 128.215 18.0309 128.283 18.3271C128.352 18.6234 128.459 18.8831 128.604 19.1064C128.75 19.3298 128.937 19.5052 129.165 19.6328C129.393 19.7604 129.664 19.8242 129.979 19.8242C130.284 19.8242 130.548 19.7604 130.771 19.6328C130.999 19.5052 131.186 19.3298 131.332 19.1064C131.478 18.8831 131.585 18.6234 131.653 18.3271C131.726 18.0309 131.763 17.7165 131.763 17.3838V17.2266C131.763 16.8984 131.726 16.5885 131.653 16.2969C131.585 16.0007 131.476 15.7386 131.325 15.5107C131.179 15.2829 130.993 15.1051 130.765 14.9775C130.541 14.8454 130.275 14.7793 129.965 14.7793C129.655 14.7793 129.386 14.8454 129.158 14.9775C128.935 15.1051 128.75 15.2829 128.604 15.5107C128.459 15.7386 128.352 16.0007 128.283 16.2969C128.215 16.5885 128.181 16.8984 128.181 17.2266ZM139.241 19.2568V13.6035H140.896V21H139.337L139.241 19.2568ZM139.474 17.7188L140.027 17.7051C140.027 18.2018 139.973 18.6598 139.863 19.0791C139.754 19.4938 139.585 19.8561 139.357 20.166C139.13 20.4714 138.838 20.7106 138.482 20.8838C138.127 21.0524 137.701 21.1367 137.204 21.1367C136.844 21.1367 136.514 21.0843 136.213 20.9795C135.912 20.8747 135.652 20.7129 135.434 20.4941C135.219 20.2754 135.053 19.9906 134.935 19.6396C134.816 19.2887 134.757 18.8695 134.757 18.3818V13.6035H136.404V18.3955C136.404 18.6644 136.436 18.89 136.5 19.0723C136.564 19.25 136.65 19.3936 136.76 19.5029C136.869 19.6123 136.997 19.6898 137.143 19.7354C137.288 19.7809 137.443 19.8037 137.607 19.8037C138.077 19.8037 138.446 19.7126 138.715 19.5303C138.988 19.3434 139.182 19.0928 139.296 18.7783C139.414 18.4639 139.474 18.1107 139.474 17.7188ZM144.218 15.1826V21H142.57V13.6035H144.122L144.218 15.1826ZM143.924 17.0283L143.391 17.0215C143.395 16.4974 143.468 16.0166 143.609 15.5791C143.755 15.1416 143.956 14.7656 144.211 14.4512C144.471 14.1367 144.781 13.8952 145.141 13.7266C145.501 13.5534 145.902 13.4668 146.344 13.4668C146.699 13.4668 147.021 13.5169 147.308 13.6172C147.599 13.7129 147.848 13.8701 148.053 14.0889C148.262 14.3076 148.422 14.5924 148.531 14.9434C148.641 15.2897 148.695 15.7158 148.695 16.2217V21H147.041V16.2148C147.041 15.8594 146.989 15.5791 146.884 15.374C146.784 15.1644 146.635 15.0163 146.439 14.9297C146.248 14.8385 146.009 14.793 145.722 14.793C145.439 14.793 145.186 14.8522 144.963 14.9707C144.74 15.0892 144.55 15.251 144.396 15.4561C144.245 15.6611 144.129 15.8981 144.047 16.167C143.965 16.4359 143.924 16.723 143.924 17.0283ZM153.768 13.6035V14.8066H149.598V13.6035H153.768ZM150.801 11.792H152.448V18.9561C152.448 19.1839 152.48 19.3594 152.544 19.4824C152.612 19.6009 152.706 19.6807 152.824 19.7217C152.943 19.7627 153.082 19.7832 153.241 19.7832C153.355 19.7832 153.465 19.7764 153.569 19.7627C153.674 19.749 153.758 19.7354 153.822 19.7217L153.829 20.9795C153.692 21.0205 153.533 21.057 153.351 21.0889C153.173 21.1208 152.968 21.1367 152.735 21.1367C152.357 21.1367 152.022 21.0706 151.73 20.9385C151.439 20.8018 151.211 20.5807 151.047 20.2754C150.883 19.9701 150.801 19.5645 150.801 19.0586V11.792ZM158.122 18.0674H156.598C156.602 17.6436 156.639 17.2881 156.707 17.001C156.775 16.7093 156.889 16.445 157.049 16.208C157.213 15.971 157.429 15.7204 157.698 15.4561C157.908 15.2555 158.097 15.0664 158.266 14.8887C158.434 14.7064 158.569 14.515 158.669 14.3145C158.769 14.1094 158.819 13.8747 158.819 13.6104C158.819 13.3232 158.771 13.0794 158.676 12.8789C158.58 12.6784 158.439 12.5257 158.252 12.4209C158.07 12.3161 157.842 12.2637 157.568 12.2637C157.34 12.2637 157.126 12.3092 156.926 12.4004C156.725 12.487 156.563 12.6237 156.44 12.8105C156.317 12.9928 156.251 13.2344 156.242 13.5352H154.595C154.604 12.9609 154.741 12.4779 155.005 12.0859C155.269 11.694 155.625 11.4001 156.071 11.2041C156.518 11.0081 157.017 10.9102 157.568 10.9102C158.179 10.9102 158.701 11.015 159.134 11.2246C159.567 11.4297 159.897 11.7305 160.125 12.127C160.357 12.5189 160.474 12.9928 160.474 13.5488C160.474 13.9499 160.394 14.3145 160.234 14.6426C160.075 14.9661 159.868 15.2692 159.612 15.5518C159.357 15.8298 159.081 16.1077 158.785 16.3857C158.53 16.6182 158.357 16.8711 158.266 17.1445C158.174 17.4134 158.127 17.721 158.122 18.0674ZM156.461 20.2002C156.461 19.9541 156.545 19.7467 156.714 19.5781C156.882 19.4049 157.113 19.3184 157.404 19.3184C157.696 19.3184 157.926 19.4049 158.095 19.5781C158.263 19.7467 158.348 19.9541 158.348 20.2002C158.348 20.4463 158.263 20.6559 158.095 20.8291C157.926 20.9977 157.696 21.082 157.404 21.082C157.113 21.082 156.882 20.9977 156.714 20.8291C156.545 20.6559 156.461 20.4463 156.461 20.2002Z" fill="#212529"/>
<g clip-path="url(#clip0_301_82)">
<path d="M187.347 14.6664H172.667C171.933 14.6664 171.333 15.2664 171.333 15.9998C171.333 16.7331 171.933 17.3331 172.667 17.3331H187.347V19.7198C187.347 20.3198 188.067 20.6131 188.48 20.1864L192.187 16.4664C192.44 16.1998 192.44 15.7864 192.187 15.5198L188.48 11.7998C188.067 11.3731 187.347 11.6798 187.347 12.2664V14.6664V14.6664Z" fill="#DB3022"/>
</g>
<defs>
<clipPath id="clip0_301_82">
<rect width="32" height="32" fill="white" transform="translate(166)"/>
</clipPath>
</defs>
</svg>
