<svg width="144" height="32" viewBox="0 0 144 32" fill="none" xmlns="http://www.w3.org/2000/svg">
<path d="M3.52441 11.0469V21H1.80859V11.0469H3.52441ZM7.58496 15.4014V16.7617H3.08691V15.4014H7.58496ZM8.15234 11.0469V12.4141H3.08691V11.0469H8.15234ZM8.89062 17.3838V17.2266C8.89062 16.6934 8.9681 16.1989 9.12305 15.7432C9.27799 15.2829 9.5013 14.8841 9.79297 14.5469C10.0892 14.2051 10.4492 13.9408 10.873 13.7539C11.3014 13.5625 11.7845 13.4668 12.3223 13.4668C12.8646 13.4668 13.3477 13.5625 13.7715 13.7539C14.1999 13.9408 14.5622 14.2051 14.8584 14.5469C15.1546 14.8841 15.3802 15.2829 15.5352 15.7432C15.6901 16.1989 15.7676 16.6934 15.7676 17.2266V17.3838C15.7676 17.917 15.6901 18.4115 15.5352 18.8672C15.3802 19.3229 15.1546 19.7217 14.8584 20.0635C14.5622 20.4007 14.2021 20.665 13.7783 20.8564C13.3545 21.0433 12.8737 21.1367 12.3359 21.1367C11.7936 21.1367 11.3083 21.0433 10.8799 20.8564C10.4561 20.665 10.096 20.4007 9.7998 20.0635C9.50358 19.7217 9.27799 19.3229 9.12305 18.8672C8.9681 18.4115 8.89062 17.917 8.89062 17.3838ZM10.5381 17.2266V17.3838C10.5381 17.7165 10.5723 18.0309 10.6406 18.3271C10.709 18.6234 10.8161 18.8831 10.9619 19.1064C11.1077 19.3298 11.2946 19.5052 11.5225 19.6328C11.7503 19.7604 12.0215 19.8242 12.3359 19.8242C12.6413 19.8242 12.9056 19.7604 13.1289 19.6328C13.3568 19.5052 13.5436 19.3298 13.6895 19.1064C13.8353 18.8831 13.9424 18.6234 14.0107 18.3271C14.0837 18.0309 14.1201 17.7165 14.1201 17.3838V17.2266C14.1201 16.8984 14.0837 16.5885 14.0107 16.2969C13.9424 16.0007 13.833 15.7386 13.6826 15.5107C13.5368 15.2829 13.3499 15.1051 13.1221 14.9775C12.8988 14.8454 12.6322 14.7793 12.3223 14.7793C12.0124 14.7793 11.7435 14.8454 11.5156 14.9775C11.2923 15.1051 11.1077 15.2829 10.9619 15.5107C10.8161 15.7386 10.709 16.0007 10.6406 16.2969C10.5723 16.5885 10.5381 16.8984 10.5381 17.2266ZM18.8027 15.0117V21H17.1553V13.6035H18.7275L18.8027 15.0117ZM21.0654 13.5557L21.0518 15.0869C20.9515 15.0687 20.8421 15.055 20.7236 15.0459C20.6097 15.0368 20.4958 15.0322 20.3818 15.0322C20.0993 15.0322 19.8509 15.0732 19.6367 15.1553C19.4225 15.2327 19.2425 15.3467 19.0967 15.4971C18.9554 15.6429 18.846 15.8206 18.7686 16.0303C18.6911 16.2399 18.6455 16.4746 18.6318 16.7344L18.2559 16.7617C18.2559 16.2969 18.3014 15.8662 18.3926 15.4697C18.4837 15.0732 18.6204 14.7246 18.8027 14.4238C18.9896 14.123 19.222 13.8883 19.5 13.7197C19.7826 13.5511 20.1084 13.4668 20.4775 13.4668C20.5778 13.4668 20.6849 13.4759 20.7988 13.4941C20.9173 13.5124 21.0062 13.5329 21.0654 13.5557ZM26.6982 13.6035H28.1953V20.7949C28.1953 21.4603 28.054 22.0254 27.7715 22.4902C27.4889 22.9551 27.0947 23.3083 26.5889 23.5498C26.083 23.7959 25.4974 23.9189 24.832 23.9189C24.5495 23.9189 24.235 23.8779 23.8887 23.7959C23.5469 23.7139 23.2142 23.5817 22.8906 23.3994C22.5716 23.2217 22.305 22.987 22.0908 22.6953L22.8633 21.7246C23.1276 22.0391 23.4193 22.2692 23.7383 22.415C24.0573 22.5609 24.3923 22.6338 24.7432 22.6338C25.1214 22.6338 25.4427 22.5632 25.707 22.4219C25.9759 22.2852 26.1833 22.0824 26.3291 21.8135C26.4749 21.5446 26.5479 21.2165 26.5479 20.8291V15.2783L26.6982 13.6035ZM21.6738 17.3838V17.2402C21.6738 16.6797 21.7422 16.1693 21.8789 15.709C22.0156 15.2441 22.2116 14.8454 22.4668 14.5127C22.722 14.1755 23.0319 13.918 23.3965 13.7402C23.7611 13.5579 24.1735 13.4668 24.6338 13.4668C25.1123 13.4668 25.5202 13.5534 25.8574 13.7266C26.1992 13.8997 26.484 14.1481 26.7119 14.4717C26.9398 14.7907 27.1175 15.1735 27.2451 15.6201C27.3773 16.0622 27.4753 16.5544 27.5391 17.0967V17.5547C27.4798 18.0833 27.3796 18.5664 27.2383 19.0039C27.097 19.4414 26.9102 19.8197 26.6777 20.1387C26.4453 20.4577 26.1582 20.7038 25.8164 20.877C25.4792 21.0501 25.0804 21.1367 24.6201 21.1367C24.1689 21.1367 23.7611 21.0433 23.3965 20.8564C23.0365 20.6696 22.7266 20.4076 22.4668 20.0703C22.2116 19.7331 22.0156 19.3366 21.8789 18.8809C21.7422 18.4206 21.6738 17.9215 21.6738 17.3838ZM23.3213 17.2402V17.3838C23.3213 17.721 23.3532 18.0355 23.417 18.3271C23.4854 18.6188 23.5879 18.8763 23.7246 19.0996C23.8659 19.3184 24.0436 19.4915 24.2578 19.6191C24.4766 19.7422 24.734 19.8037 25.0303 19.8037C25.4176 19.8037 25.7344 19.7217 25.9805 19.5576C26.2311 19.3936 26.4225 19.1725 26.5547 18.8945C26.6914 18.612 26.7871 18.2975 26.8418 17.9512V16.7139C26.8145 16.445 26.7575 16.1943 26.6709 15.9619C26.5889 15.7295 26.4772 15.5267 26.3359 15.3535C26.1947 15.1758 26.0169 15.0391 25.8027 14.9434C25.5885 14.8431 25.3356 14.793 25.0439 14.793C24.7477 14.793 24.4902 14.8568 24.2715 14.9844C24.0527 15.112 23.8727 15.2874 23.7314 15.5107C23.5947 15.734 23.4922 15.9938 23.4238 16.29C23.3555 16.5863 23.3213 16.903 23.3213 17.2402ZM29.5898 17.3838V17.2266C29.5898 16.6934 29.6673 16.1989 29.8223 15.7432C29.9772 15.2829 30.2005 14.8841 30.4922 14.5469C30.7884 14.2051 31.1484 13.9408 31.5723 13.7539C32.0007 13.5625 32.4837 13.4668 33.0215 13.4668C33.5638 13.4668 34.0469 13.5625 34.4707 13.7539C34.8991 13.9408 35.2614 14.2051 35.5576 14.5469C35.8538 14.8841 36.0794 15.2829 36.2344 15.7432C36.3893 16.1989 36.4668 16.6934 36.4668 17.2266V17.3838C36.4668 17.917 36.3893 18.4115 36.2344 18.8672C36.0794 19.3229 35.8538 19.7217 35.5576 20.0635C35.2614 20.4007 34.9014 20.665 34.4775 20.8564C34.0537 21.0433 33.5729 21.1367 33.0352 21.1367C32.4928 21.1367 32.0075 21.0433 31.5791 20.8564C31.1553 20.665 30.7952 20.4007 30.499 20.0635C30.2028 19.7217 29.9772 19.3229 29.8223 18.8672C29.6673 18.4115 29.5898 17.917 29.5898 17.3838ZM31.2373 17.2266V17.3838C31.2373 17.7165 31.2715 18.0309 31.3398 18.3271C31.4082 18.6234 31.5153 18.8831 31.6611 19.1064C31.807 19.3298 31.9938 19.5052 32.2217 19.6328C32.4495 19.7604 32.7207 19.8242 33.0352 19.8242C33.3405 19.8242 33.6048 19.7604 33.8281 19.6328C34.056 19.5052 34.2428 19.3298 34.3887 19.1064C34.5345 18.8831 34.6416 18.6234 34.71 18.3271C34.7829 18.0309 34.8193 17.7165 34.8193 17.3838V17.2266C34.8193 16.8984 34.7829 16.5885 34.71 16.2969C34.6416 16.0007 34.5322 15.7386 34.3818 15.5107C34.236 15.2829 34.0492 15.1051 33.8213 14.9775C33.598 14.8454 33.3314 14.7793 33.0215 14.7793C32.7116 14.7793 32.4427 14.8454 32.2148 14.9775C31.9915 15.1051 31.807 15.2829 31.6611 15.5107C31.5153 15.7386 31.4082 16.0007 31.3398 16.2969C31.2715 16.5885 31.2373 16.8984 31.2373 17.2266ZM41.2383 13.6035V14.8066H37.0684V13.6035H41.2383ZM38.2715 11.792H39.9189V18.9561C39.9189 19.1839 39.9508 19.3594 40.0146 19.4824C40.083 19.6009 40.1764 19.6807 40.2949 19.7217C40.4134 19.7627 40.5524 19.7832 40.7119 19.7832C40.8258 19.7832 40.9352 19.7764 41.04 19.7627C41.1449 19.749 41.2292 19.7354 41.293 19.7217L41.2998 20.9795C41.1631 21.0205 41.0036 21.057 40.8213 21.0889C40.6436 21.1208 40.4385 21.1367 40.2061 21.1367C39.8278 21.1367 39.4928 21.0706 39.2012 20.9385C38.9095 20.8018 38.6816 20.5807 38.5176 20.2754C38.3535 19.9701 38.2715 19.5645 38.2715 19.0586V11.792ZM49.9404 17.2881H47.3496V15.9277H49.9404C50.3916 15.9277 50.7562 15.8548 51.0342 15.709C51.3122 15.5632 51.515 15.3626 51.6426 15.1074C51.7747 14.8477 51.8408 14.5514 51.8408 14.2188C51.8408 13.9043 51.7747 13.6104 51.6426 13.3369C51.515 13.0589 51.3122 12.8356 51.0342 12.667C50.7562 12.4984 50.3916 12.4141 49.9404 12.4141H47.876V21H46.1602V11.0469H49.9404C50.7106 11.0469 51.3646 11.1836 51.9023 11.457C52.4447 11.7259 52.8571 12.0996 53.1396 12.5781C53.4222 13.0521 53.5635 13.5944 53.5635 14.2051C53.5635 14.8477 53.4222 15.3991 53.1396 15.8594C52.8571 16.3197 52.4447 16.6729 51.9023 16.9189C51.3646 17.165 50.7106 17.2881 49.9404 17.2881ZM59.0254 19.5166V15.9893C59.0254 15.7249 58.9775 15.4971 58.8818 15.3057C58.7861 15.1143 58.6403 14.9661 58.4443 14.8613C58.2529 14.7565 58.0114 14.7041 57.7197 14.7041C57.4508 14.7041 57.2184 14.7497 57.0225 14.8408C56.8265 14.932 56.6738 15.055 56.5645 15.21C56.4551 15.3649 56.4004 15.5404 56.4004 15.7363H54.7598C54.7598 15.4447 54.8304 15.1621 54.9717 14.8887C55.113 14.6152 55.318 14.3714 55.5869 14.1572C55.8558 13.943 56.1771 13.7744 56.5508 13.6514C56.9245 13.5283 57.3438 13.4668 57.8086 13.4668C58.3646 13.4668 58.8568 13.5602 59.2852 13.7471C59.7181 13.9339 60.0576 14.2165 60.3037 14.5947C60.5544 14.9684 60.6797 15.4378 60.6797 16.0029V19.291C60.6797 19.6283 60.7025 19.9313 60.748 20.2002C60.7982 20.4645 60.8688 20.6947 60.96 20.8906V21H59.2715C59.194 20.8223 59.1325 20.5967 59.0869 20.3232C59.0459 20.0452 59.0254 19.7764 59.0254 19.5166ZM59.2646 16.502L59.2783 17.5205H58.0957C57.7904 17.5205 57.5215 17.5501 57.2891 17.6094C57.0566 17.6641 56.863 17.7461 56.708 17.8555C56.5531 17.9648 56.4368 18.097 56.3594 18.252C56.2819 18.4069 56.2432 18.5824 56.2432 18.7783C56.2432 18.9743 56.2887 19.1543 56.3799 19.3184C56.471 19.4779 56.6032 19.6032 56.7764 19.6943C56.9541 19.7855 57.1683 19.8311 57.4189 19.8311C57.7562 19.8311 58.0501 19.7627 58.3008 19.626C58.556 19.4847 58.7565 19.3138 58.9023 19.1133C59.0482 18.9082 59.1257 18.7145 59.1348 18.5322L59.668 19.2637C59.6133 19.4505 59.5199 19.651 59.3877 19.8652C59.2555 20.0794 59.0824 20.2845 58.8682 20.4805C58.6585 20.6719 58.4056 20.8291 58.1094 20.9521C57.8177 21.0752 57.4805 21.1367 57.0977 21.1367C56.6146 21.1367 56.1839 21.041 55.8057 20.8496C55.4274 20.6536 55.1312 20.3916 54.917 20.0635C54.7028 19.7308 54.5957 19.3548 54.5957 18.9355C54.5957 18.5436 54.6686 18.1973 54.8145 17.8965C54.9648 17.5911 55.1836 17.3359 55.4707 17.1309C55.7624 16.9258 56.1178 16.7708 56.5371 16.666C56.9564 16.5566 57.4349 16.502 57.9727 16.502H59.2646ZM66.5518 18.9971C66.5518 18.833 66.5107 18.6849 66.4287 18.5527C66.3467 18.416 66.1895 18.293 65.957 18.1836C65.7292 18.0742 65.3919 17.974 64.9453 17.8828C64.5534 17.7962 64.1934 17.6937 63.8652 17.5752C63.5417 17.4521 63.2637 17.304 63.0312 17.1309C62.7988 16.9577 62.6188 16.7526 62.4912 16.5156C62.3636 16.2786 62.2998 16.0052 62.2998 15.6953C62.2998 15.3945 62.3659 15.1097 62.498 14.8408C62.6302 14.5719 62.8193 14.335 63.0654 14.1299C63.3115 13.9248 63.61 13.763 63.9609 13.6445C64.3164 13.526 64.7129 13.4668 65.1504 13.4668C65.7702 13.4668 66.3011 13.5716 66.7432 13.7812C67.1898 13.9863 67.5316 14.2666 67.7686 14.6221C68.0055 14.973 68.124 15.3695 68.124 15.8115H66.4766C66.4766 15.6156 66.4264 15.4333 66.3262 15.2646C66.2305 15.0915 66.0846 14.9525 65.8887 14.8477C65.6927 14.7383 65.4466 14.6836 65.1504 14.6836C64.8678 14.6836 64.6331 14.7292 64.4463 14.8203C64.264 14.9069 64.1273 15.0208 64.0361 15.1621C63.9495 15.3034 63.9062 15.4583 63.9062 15.627C63.9062 15.75 63.929 15.8617 63.9746 15.9619C64.0247 16.0576 64.1068 16.1465 64.2207 16.2285C64.3346 16.306 64.4896 16.3789 64.6855 16.4473C64.8861 16.5156 65.1367 16.5817 65.4375 16.6455C66.0026 16.764 66.488 16.9167 66.8936 17.1035C67.3037 17.2858 67.6182 17.5228 67.8369 17.8145C68.0557 18.1016 68.165 18.4661 68.165 18.9082C68.165 19.2363 68.0944 19.5371 67.9531 19.8105C67.8164 20.0794 67.6159 20.3141 67.3516 20.5146C67.0872 20.7106 66.7705 20.8633 66.4014 20.9727C66.0368 21.082 65.6266 21.1367 65.1709 21.1367C64.501 21.1367 63.9336 21.0182 63.4688 20.7812C63.0039 20.5397 62.6507 20.2321 62.4092 19.8584C62.1722 19.4801 62.0537 19.0882 62.0537 18.6826H63.6465C63.6647 18.988 63.749 19.2318 63.8994 19.4141C64.0544 19.5918 64.2458 19.7217 64.4736 19.8037C64.7061 19.8812 64.9453 19.9199 65.1914 19.9199C65.4876 19.9199 65.736 19.8812 65.9365 19.8037C66.137 19.7217 66.2897 19.6123 66.3945 19.4756C66.4993 19.3343 66.5518 19.1748 66.5518 18.9971ZM73.7568 18.9971C73.7568 18.833 73.7158 18.6849 73.6338 18.5527C73.5518 18.416 73.3945 18.293 73.1621 18.1836C72.9342 18.0742 72.597 17.974 72.1504 17.8828C71.7585 17.7962 71.3984 17.6937 71.0703 17.5752C70.7467 17.4521 70.4688 17.304 70.2363 17.1309C70.0039 16.9577 69.8239 16.7526 69.6963 16.5156C69.5687 16.2786 69.5049 16.0052 69.5049 15.6953C69.5049 15.3945 69.571 15.1097 69.7031 14.8408C69.8353 14.5719 70.0244 14.335 70.2705 14.1299C70.5166 13.9248 70.8151 13.763 71.166 13.6445C71.5215 13.526 71.918 13.4668 72.3555 13.4668C72.9753 13.4668 73.5062 13.5716 73.9482 13.7812C74.3949 13.9863 74.7367 14.2666 74.9736 14.6221C75.2106 14.973 75.3291 15.3695 75.3291 15.8115H73.6816C73.6816 15.6156 73.6315 15.4333 73.5312 15.2646C73.4355 15.0915 73.2897 14.9525 73.0938 14.8477C72.8978 14.7383 72.6517 14.6836 72.3555 14.6836C72.0729 14.6836 71.8382 14.7292 71.6514 14.8203C71.4691 14.9069 71.3324 15.0208 71.2412 15.1621C71.1546 15.3034 71.1113 15.4583 71.1113 15.627C71.1113 15.75 71.1341 15.8617 71.1797 15.9619C71.2298 16.0576 71.3118 16.1465 71.4258 16.2285C71.5397 16.306 71.6947 16.3789 71.8906 16.4473C72.0911 16.5156 72.3418 16.5817 72.6426 16.6455C73.2077 16.764 73.693 16.9167 74.0986 17.1035C74.5088 17.2858 74.8232 17.5228 75.042 17.8145C75.2607 18.1016 75.3701 18.4661 75.3701 18.9082C75.3701 19.2363 75.2995 19.5371 75.1582 19.8105C75.0215 20.0794 74.821 20.3141 74.5566 20.5146C74.2923 20.7106 73.9756 20.8633 73.6064 20.9727C73.2419 21.082 72.8317 21.1367 72.376 21.1367C71.7061 21.1367 71.1387 21.0182 70.6738 20.7812C70.209 20.5397 69.8558 20.2321 69.6143 19.8584C69.3773 19.4801 69.2588 19.0882 69.2588 18.6826H70.8516C70.8698 18.988 70.9541 19.2318 71.1045 19.4141C71.2594 19.5918 71.4508 19.7217 71.6787 19.8037C71.9111 19.8812 72.1504 19.9199 72.3965 19.9199C72.6927 19.9199 72.9411 19.8812 73.1416 19.8037C73.3421 19.7217 73.4948 19.6123 73.5996 19.4756C73.7044 19.3343 73.7568 19.1748 73.7568 18.9971ZM78.8223 19.3594L80.5312 13.6035H81.584L81.2969 15.3262L79.5742 21H78.6309L78.8223 19.3594ZM77.8174 13.6035L79.1504 19.3867L79.2598 21H78.207L76.2041 13.6035H77.8174ZM83.1836 19.3184L84.4756 13.6035H86.082L84.0859 21H83.0332L83.1836 19.3184ZM81.7617 13.6035L83.4502 19.291L83.6621 21H82.7188L80.9756 15.3193L80.6885 13.6035H81.7617ZM86.8887 17.3838V17.2266C86.8887 16.6934 86.9661 16.1989 87.1211 15.7432C87.276 15.2829 87.4993 14.8841 87.791 14.5469C88.0872 14.2051 88.4473 13.9408 88.8711 13.7539C89.2995 13.5625 89.7826 13.4668 90.3203 13.4668C90.8626 13.4668 91.3457 13.5625 91.7695 13.7539C92.1979 13.9408 92.5602 14.2051 92.8564 14.5469C93.1527 14.8841 93.3783 15.2829 93.5332 15.7432C93.6882 16.1989 93.7656 16.6934 93.7656 17.2266V17.3838C93.7656 17.917 93.6882 18.4115 93.5332 18.8672C93.3783 19.3229 93.1527 19.7217 92.8564 20.0635C92.5602 20.4007 92.2002 20.665 91.7764 20.8564C91.3525 21.0433 90.8717 21.1367 90.334 21.1367C89.7917 21.1367 89.3063 21.0433 88.8779 20.8564C88.4541 20.665 88.0941 20.4007 87.7979 20.0635C87.5016 19.7217 87.276 19.3229 87.1211 18.8672C86.9661 18.4115 86.8887 17.917 86.8887 17.3838ZM88.5361 17.2266V17.3838C88.5361 17.7165 88.5703 18.0309 88.6387 18.3271C88.707 18.6234 88.8141 18.8831 88.96 19.1064C89.1058 19.3298 89.2926 19.5052 89.5205 19.6328C89.7484 19.7604 90.0195 19.8242 90.334 19.8242C90.6393 19.8242 90.9036 19.7604 91.127 19.6328C91.3548 19.5052 91.5417 19.3298 91.6875 19.1064C91.8333 18.8831 91.9404 18.6234 92.0088 18.3271C92.0817 18.0309 92.1182 17.7165 92.1182 17.3838V17.2266C92.1182 16.8984 92.0817 16.5885 92.0088 16.2969C91.9404 16.0007 91.8311 15.7386 91.6807 15.5107C91.5348 15.2829 91.348 15.1051 91.1201 14.9775C90.8968 14.8454 90.6302 14.7793 90.3203 14.7793C90.0104 14.7793 89.7415 14.8454 89.5137 14.9775C89.2904 15.1051 89.1058 15.2829 88.96 15.5107C88.8141 15.7386 88.707 16.0007 88.6387 16.2969C88.5703 16.5885 88.5361 16.8984 88.5361 17.2266ZM96.8008 15.0117V21H95.1533V13.6035H96.7256L96.8008 15.0117ZM99.0635 13.5557L99.0498 15.0869C98.9495 15.0687 98.8402 15.055 98.7217 15.0459C98.6077 15.0368 98.4938 15.0322 98.3799 15.0322C98.0973 15.0322 97.849 15.0732 97.6348 15.1553C97.4206 15.2327 97.2406 15.3467 97.0947 15.4971C96.9535 15.6429 96.8441 15.8206 96.7666 16.0303C96.6891 16.2399 96.6436 16.4746 96.6299 16.7344L96.2539 16.7617C96.2539 16.2969 96.2995 15.8662 96.3906 15.4697C96.4818 15.0732 96.6185 14.7246 96.8008 14.4238C96.9876 14.123 97.2201 13.8883 97.498 13.7197C97.7806 13.5511 98.1064 13.4668 98.4756 13.4668C98.5758 13.4668 98.6829 13.4759 98.7969 13.4941C98.9154 13.5124 99.0042 13.5329 99.0635 13.5557ZM104.471 19.4688V10.5H106.125V21H104.628L104.471 19.4688ZM99.6582 17.3838V17.2402C99.6582 16.6797 99.7243 16.1693 99.8564 15.709C99.9886 15.2441 100.18 14.8454 100.431 14.5127C100.681 14.1755 100.987 13.918 101.347 13.7402C101.707 13.5579 102.112 13.4668 102.563 13.4668C103.01 13.4668 103.402 13.5534 103.739 13.7266C104.076 13.8997 104.364 14.1481 104.601 14.4717C104.838 14.7907 105.027 15.1735 105.168 15.6201C105.309 16.0622 105.41 16.5544 105.469 17.0967V17.5547C105.41 18.0833 105.309 18.5664 105.168 19.0039C105.027 19.4414 104.838 19.8197 104.601 20.1387C104.364 20.4577 104.074 20.7038 103.732 20.877C103.395 21.0501 103.001 21.1367 102.55 21.1367C102.103 21.1367 101.7 21.0433 101.34 20.8564C100.984 20.6696 100.681 20.4076 100.431 20.0703C100.18 19.7331 99.9886 19.3366 99.8564 18.8809C99.7243 18.4206 99.6582 17.9215 99.6582 17.3838ZM101.306 17.2402V17.3838C101.306 17.721 101.335 18.0355 101.395 18.3271C101.458 18.6188 101.556 18.8763 101.688 19.0996C101.821 19.3184 101.992 19.4915 102.201 19.6191C102.415 19.7422 102.671 19.8037 102.967 19.8037C103.34 19.8037 103.648 19.7217 103.89 19.5576C104.131 19.3936 104.32 19.1725 104.457 18.8945C104.598 18.612 104.694 18.2975 104.744 17.9512V16.7139C104.717 16.445 104.66 16.1943 104.573 15.9619C104.491 15.7295 104.38 15.5267 104.238 15.3535C104.097 15.1758 103.922 15.0391 103.712 14.9434C103.507 14.8431 103.263 14.793 102.98 14.793C102.68 14.793 102.424 14.8568 102.215 14.9844C102.005 15.112 101.832 15.2874 101.695 15.5107C101.563 15.734 101.465 15.9938 101.401 16.29C101.338 16.5863 101.306 16.903 101.306 17.2402Z" fill="#212529"/>
<g clip-path="url(#clip0_301_227)">
<path d="M133.347 14.6664H118.667C117.933 14.6664 117.333 15.2664 117.333 15.9998C117.333 16.7331 117.933 17.3331 118.667 17.3331H133.347V19.7198C133.347 20.3198 134.067 20.6131 134.48 20.1864L138.187 16.4664C138.44 16.1998 138.44 15.7864 138.187 15.5198L134.48 11.7998C134.067 11.3731 133.347 11.6798 133.347 12.2664V14.6664V14.6664Z" fill="#DB3022"/>
</g>
<defs>
<clipPath id="clip0_301_227">
<rect width="32" height="32" fill="white" transform="translate(112)"/>
</clipPath>
</defs>
</svg>
