<svg width="291" height="45" viewBox="0 0 291 45" fill="none" xmlns="http://www.w3.org/2000/svg">
<path d="M5.08859 14.126C4.24859 14.126 3.49259 13.982 2.82059 13.694C2.14859 13.394 1.62059 12.974 1.23659 12.434C0.852592 11.894 0.660592 11.264 0.660592 10.544H2.85659C2.90459 11.084 3.11459 11.528 3.48659 11.876C3.87059 12.224 4.40459 12.398 5.08859 12.398C5.79659 12.398 6.34859 12.23 6.74459 11.894C7.14059 11.546 7.33859 11.102 7.33859 10.562C7.33859 10.142 7.21259 9.8 6.96059 9.536C6.72059 9.272 6.41459 9.068 6.04259 8.924C5.68259 8.78 5.17859 8.624 4.53059 8.456C3.71459 8.24 3.04859 8.024 2.53259 7.808C2.02859 7.58 1.59659 7.232 1.23659 6.764C0.876592 6.296 0.696592 5.672 0.696592 4.892C0.696592 4.172 0.876592 3.542 1.23659 3.002C1.59659 2.462 2.10059 2.048 2.74859 1.76C3.39659 1.472 4.14659 1.328 4.99859 1.328C6.21059 1.328 7.20059 1.634 7.96859 2.246C8.74859 2.846 9.18059 3.674 9.26459 4.73H6.99659C6.96059 4.274 6.74459 3.884 6.34859 3.56C5.95259 3.236 5.43059 3.074 4.78259 3.074C4.19459 3.074 3.71459 3.224 3.34259 3.524C2.97059 3.824 2.78459 4.256 2.78459 4.82C2.78459 5.204 2.89859 5.522 3.12659 5.774C3.36659 6.014 3.66659 6.206 4.02659 6.35C4.38659 6.494 4.87859 6.65 5.50259 6.818C6.33059 7.046 7.00259 7.274 7.51859 7.502C8.04659 7.73 8.49059 8.084 8.85059 8.564C9.22259 9.032 9.40859 9.662 9.40859 10.454C9.40859 11.09 9.23459 11.69 8.88659 12.254C8.55059 12.818 8.05259 13.274 7.39259 13.622C6.74459 13.958 5.97659 14.126 5.08859 14.126ZM11.4501 9.032C11.4501 8.012 11.6541 7.118 12.0621 6.35C12.4821 5.57 13.0581 4.97 13.7901 4.55C14.5221 4.13 15.3621 3.92 16.3101 3.92C17.5101 3.92 18.5001 4.208 19.2801 4.784C20.0721 5.348 20.6061 6.158 20.8821 7.214H18.6681C18.4881 6.722 18.2001 6.338 17.8041 6.062C17.4081 5.786 16.9101 5.648 16.3101 5.648C15.4701 5.648 14.7981 5.948 14.2941 6.548C13.8021 7.136 13.5561 7.964 13.5561 9.032C13.5561 10.1 13.8021 10.934 14.2941 11.534C14.7981 12.134 15.4701 12.434 16.3101 12.434C17.4981 12.434 18.2841 11.912 18.6681 10.868H20.8821C20.5941 11.876 20.0541 12.68 19.2621 13.28C18.4701 13.868 17.4861 14.162 16.3101 14.162C15.3621 14.162 14.5221 13.952 13.7901 13.532C13.0581 13.1 12.4821 12.5 12.0621 11.732C11.6541 10.952 11.4501 10.052 11.4501 9.032ZM22.5473 8.996C22.5473 8 22.7513 7.118 23.1593 6.35C23.5793 5.582 24.1433 4.988 24.8513 4.568C25.5713 4.136 26.3633 3.92 27.2273 3.92C28.0073 3.92 28.6853 4.076 29.2613 4.388C29.8493 4.688 30.3173 5.066 30.6653 5.522V4.082H32.7353V14H30.6653V12.524C30.3173 12.992 29.8433 13.382 29.2433 13.694C28.6433 14.006 27.9593 14.162 27.1913 14.162C26.3393 14.162 25.5593 13.946 24.8513 13.514C24.1433 13.07 23.5793 12.458 23.1593 11.678C22.7513 10.886 22.5473 9.992 22.5473 8.996ZM30.6653 9.032C30.6653 8.348 30.5213 7.754 30.2333 7.25C29.9573 6.746 29.5913 6.362 29.1353 6.098C28.6793 5.834 28.1873 5.702 27.6593 5.702C27.1313 5.702 26.6393 5.834 26.1833 6.098C25.7273 6.35 25.3553 6.728 25.0673 7.232C24.7913 7.724 24.6533 8.312 24.6533 8.996C24.6533 9.68 24.7913 10.28 25.0673 10.796C25.3553 11.312 25.7273 11.708 26.1833 11.984C26.6513 12.248 27.1433 12.38 27.6593 12.38C28.1873 12.38 28.6793 12.248 29.1353 11.984C29.5913 11.72 29.9573 11.336 30.2333 10.832C30.5213 10.316 30.6653 9.716 30.6653 9.032ZM40.7387 3.92C41.5187 3.92 42.2147 4.082 42.8267 4.406C43.4507 4.73 43.9367 5.21 44.2847 5.846C44.6327 6.482 44.8067 7.25 44.8067 8.15V14H42.7727V8.456C42.7727 7.568 42.5507 6.89 42.1067 6.422C41.6627 5.942 41.0567 5.702 40.2887 5.702C39.5207 5.702 38.9087 5.942 38.4527 6.422C38.0087 6.89 37.7867 7.568 37.7867 8.456V14H35.7347V4.082H37.7867V5.216C38.1227 4.808 38.5487 4.49 39.0647 4.262C39.5927 4.034 40.1507 3.92 40.7387 3.92ZM55.1024 5.756V11.246C55.1024 11.618 55.1864 11.888 55.3544 12.056C55.5344 12.212 55.8344 12.29 56.2544 12.29H57.5144V14H55.8944C54.9704 14 54.2624 13.784 53.7704 13.352C53.2784 12.92 53.0324 12.218 53.0324 11.246V5.756H51.8624V4.082H53.0324V1.616H55.1024V4.082H57.5144V5.756H55.1024ZM64.8399 3.92C65.5959 3.92 66.2679 4.082 66.8559 4.406C67.4559 4.73 67.9239 5.21 68.2599 5.846C68.6079 6.482 68.7819 7.25 68.7819 8.15V14H66.7479V8.456C66.7479 7.568 66.5259 6.89 66.0819 6.422C65.6379 5.942 65.0319 5.702 64.2639 5.702C63.4959 5.702 62.8839 5.942 62.4279 6.422C61.9839 6.89 61.7619 7.568 61.7619 8.456V14H59.7099V0.68H61.7619V5.234C62.1099 4.814 62.5479 4.49 63.0759 4.262C63.6159 4.034 64.2039 3.92 64.8399 3.92ZM80.7936 8.798C80.7936 9.17 80.7696 9.506 80.7216 9.806H73.1436C73.2036 10.598 73.4976 11.234 74.0256 11.714C74.5536 12.194 75.2016 12.434 75.9696 12.434C77.0736 12.434 77.8536 11.972 78.3096 11.048H80.5236C80.2236 11.96 79.6776 12.71 78.8856 13.298C78.1056 13.874 77.1336 14.162 75.9696 14.162C75.0216 14.162 74.1696 13.952 73.4136 13.532C72.6696 13.1 72.0816 12.5 71.6496 11.732C71.2296 10.952 71.0196 10.052 71.0196 9.032C71.0196 8.012 71.2236 7.118 71.6316 6.35C72.0516 5.57 72.6336 4.97 73.3776 4.55C74.1336 4.13 74.9976 3.92 75.9696 3.92C76.9056 3.92 77.7396 4.124 78.4716 4.532C79.2036 4.94 79.7736 5.516 80.1816 6.26C80.5896 6.992 80.7936 7.838 80.7936 8.798ZM78.6516 8.15C78.6396 7.394 78.3696 6.788 77.8416 6.332C77.3136 5.876 76.6596 5.648 75.8796 5.648C75.1716 5.648 74.5656 5.876 74.0616 6.332C73.5576 6.776 73.2576 7.382 73.1616 8.15H78.6516ZM90.1492 5.558C90.4972 5.078 90.9712 4.688 91.5712 4.388C92.1832 4.076 92.8612 3.92 93.6052 3.92C94.4812 3.92 95.2732 4.13 95.9812 4.55C96.6892 4.97 97.2472 5.57 97.6552 6.35C98.0632 7.118 98.2672 8 98.2672 8.996C98.2672 9.992 98.0632 10.886 97.6552 11.678C97.2472 12.458 96.6832 13.07 95.9632 13.514C95.2552 13.946 94.4692 14.162 93.6052 14.162C92.8372 14.162 92.1532 14.012 91.5532 13.712C90.9652 13.412 90.4972 13.028 90.1492 12.56V14H88.0972V0.68H90.1492V5.558ZM96.1792 8.996C96.1792 8.312 96.0352 7.724 95.7472 7.232C95.4712 6.728 95.0992 6.35 94.6312 6.098C94.1752 5.834 93.6832 5.702 93.1552 5.702C92.6392 5.702 92.1472 5.834 91.6792 6.098C91.2232 6.362 90.8512 6.746 90.5632 7.25C90.2872 7.754 90.1492 8.348 90.1492 9.032C90.1492 9.716 90.2872 10.316 90.5632 10.832C90.8512 11.336 91.2232 11.72 91.6792 11.984C92.1472 12.248 92.6392 12.38 93.1552 12.38C93.6832 12.38 94.1752 12.248 94.6312 11.984C95.0992 11.708 95.4712 11.312 95.7472 10.796C96.0352 10.28 96.1792 9.68 96.1792 8.996ZM102.653 5.522C102.953 5.018 103.349 4.628 103.841 4.352C104.345 4.064 104.939 3.92 105.623 3.92V6.044H105.101C104.297 6.044 103.685 6.248 103.265 6.656C102.857 7.064 102.653 7.772 102.653 8.78V14H100.601V4.082H102.653V5.522ZM107.129 8.996C107.129 8 107.333 7.118 107.741 6.35C108.161 5.582 108.725 4.988 109.433 4.568C110.153 4.136 110.945 3.92 111.809 3.92C112.589 3.92 113.267 4.076 113.843 4.388C114.431 4.688 114.899 5.066 115.247 5.522V4.082H117.317V14H115.247V12.524C114.899 12.992 114.425 13.382 113.825 13.694C113.225 14.006 112.541 14.162 111.773 14.162C110.921 14.162 110.141 13.946 109.433 13.514C108.725 13.07 108.161 12.458 107.741 11.678C107.333 10.886 107.129 9.992 107.129 8.996ZM115.247 9.032C115.247 8.348 115.103 7.754 114.815 7.25C114.539 6.746 114.173 6.362 113.717 6.098C113.261 5.834 112.769 5.702 112.241 5.702C111.713 5.702 111.221 5.834 110.765 6.098C110.309 6.35 109.937 6.728 109.649 7.232C109.373 7.724 109.235 8.312 109.235 8.996C109.235 9.68 109.373 10.28 109.649 10.796C109.937 11.312 110.309 11.708 110.765 11.984C111.233 12.248 111.725 12.38 112.241 12.38C112.769 12.38 113.261 12.248 113.717 11.984C114.173 11.72 114.539 11.336 114.815 10.832C115.103 10.316 115.247 9.716 115.247 9.032ZM125.321 3.92C126.101 3.92 126.797 4.082 127.409 4.406C128.033 4.73 128.519 5.21 128.867 5.846C129.215 6.482 129.389 7.25 129.389 8.15V14H127.355V8.456C127.355 7.568 127.133 6.89 126.689 6.422C126.245 5.942 125.639 5.702 124.871 5.702C124.103 5.702 123.491 5.942 123.035 6.422C122.591 6.89 122.369 7.568 122.369 8.456V14H120.317V4.082H122.369V5.216C122.705 4.808 123.131 4.49 123.647 4.262C124.175 4.034 124.733 3.92 125.321 3.92ZM131.626 8.996C131.626 8 131.83 7.118 132.238 6.35C132.658 5.582 133.222 4.988 133.93 4.568C134.65 4.136 135.448 3.92 136.324 3.92C136.972 3.92 137.608 4.064 138.232 4.352C138.868 4.628 139.372 5 139.744 5.468V0.68H141.814V14H139.744V12.506C139.408 12.986 138.94 13.382 138.34 13.694C137.752 14.006 137.074 14.162 136.306 14.162C135.442 14.162 134.65 13.946 133.93 13.514C133.222 13.07 132.658 12.458 132.238 11.678C131.83 10.886 131.626 9.992 131.626 8.996ZM139.744 9.032C139.744 8.348 139.6 7.754 139.312 7.25C139.036 6.746 138.67 6.362 138.214 6.098C137.758 5.834 137.266 5.702 136.738 5.702C136.21 5.702 135.718 5.834 135.262 6.098C134.806 6.35 134.434 6.728 134.146 7.232C133.87 7.724 133.732 8.312 133.732 8.996C133.732 9.68 133.87 10.28 134.146 10.796C134.434 11.312 134.806 11.708 135.262 11.984C135.73 12.248 136.222 12.38 136.738 12.38C137.266 12.38 137.758 12.248 138.214 11.984C138.67 11.72 139.036 11.336 139.312 10.832C139.6 10.316 139.744 9.716 139.744 9.032ZM154.798 3.92C155.578 3.92 156.274 4.082 156.886 4.406C157.51 4.73 157.996 5.21 158.344 5.846C158.692 6.482 158.866 7.25 158.866 8.15V14H156.832V8.456C156.832 7.568 156.61 6.89 156.166 6.422C155.722 5.942 155.116 5.702 154.348 5.702C153.58 5.702 152.968 5.942 152.512 6.422C152.068 6.89 151.846 7.568 151.846 8.456V14H149.794V4.082H151.846V5.216C152.182 4.808 152.608 4.49 153.124 4.262C153.652 4.034 154.21 3.92 154.798 3.92ZM170.877 8.798C170.877 9.17 170.853 9.506 170.805 9.806H163.227C163.287 10.598 163.581 11.234 164.109 11.714C164.637 12.194 165.285 12.434 166.053 12.434C167.157 12.434 167.937 11.972 168.393 11.048H170.607C170.307 11.96 169.761 12.71 168.969 13.298C168.189 13.874 167.217 14.162 166.053 14.162C165.105 14.162 164.253 13.952 163.497 13.532C162.753 13.1 162.165 12.5 161.733 11.732C161.313 10.952 161.103 10.052 161.103 9.032C161.103 8.012 161.307 7.118 161.715 6.35C162.135 5.57 162.717 4.97 163.461 4.55C164.217 4.13 165.081 3.92 166.053 3.92C166.989 3.92 167.823 4.124 168.555 4.532C169.287 4.94 169.857 5.516 170.265 6.26C170.673 6.992 170.877 7.838 170.877 8.798ZM168.735 8.15C168.723 7.394 168.453 6.788 167.925 6.332C167.397 5.876 166.743 5.648 165.963 5.648C165.255 5.648 164.649 5.876 164.145 6.332C163.641 6.776 163.341 7.382 163.245 8.15H168.735ZM186.521 4.082L183.443 14H181.283L179.285 6.674L177.287 14H175.127L172.031 4.082H174.119L176.189 12.056L178.295 4.082H180.437L182.453 12.02L184.505 4.082H186.521ZM206.515 1.49V14H204.463V5.432L200.647 14H199.225L195.391 5.432V14H193.339V1.49H195.553L199.945 11.3L204.319 1.49H206.515ZM208.832 8.996C208.832 8 209.036 7.118 209.444 6.35C209.864 5.582 210.428 4.988 211.136 4.568C211.856 4.136 212.648 3.92 213.512 3.92C214.292 3.92 214.97 4.076 215.546 4.388C216.134 4.688 216.602 5.066 216.95 5.522V4.082H219.02V14H216.95V12.524C216.602 12.992 216.128 13.382 215.528 13.694C214.928 14.006 214.244 14.162 213.476 14.162C212.624 14.162 211.844 13.946 211.136 13.514C210.428 13.07 209.864 12.458 209.444 11.678C209.036 10.886 208.832 9.992 208.832 8.996ZM216.95 9.032C216.95 8.348 216.806 7.754 216.518 7.25C216.242 6.746 215.876 6.362 215.42 6.098C214.964 5.834 214.472 5.702 213.944 5.702C213.416 5.702 212.924 5.834 212.468 6.098C212.012 6.35 211.64 6.728 211.352 7.232C211.076 7.724 210.938 8.312 210.938 8.996C210.938 9.68 211.076 10.28 211.352 10.796C211.64 11.312 212.012 11.708 212.468 11.984C212.936 12.248 213.428 12.38 213.944 12.38C214.472 12.38 214.964 12.248 215.42 11.984C215.876 11.72 216.242 11.336 216.518 10.832C216.806 10.316 216.95 9.716 216.95 9.032ZM225.619 14.162C224.839 14.162 224.137 14.024 223.513 13.748C222.901 13.46 222.415 13.076 222.055 12.596C221.695 12.104 221.503 11.558 221.479 10.958H223.603C223.639 11.378 223.837 11.732 224.197 12.02C224.569 12.296 225.031 12.434 225.583 12.434C226.159 12.434 226.603 12.326 226.915 12.11C227.239 11.882 227.401 11.594 227.401 11.246C227.401 10.874 227.221 10.598 226.861 10.418C226.513 10.238 225.955 10.04 225.187 9.824C224.443 9.62 223.837 9.422 223.369 9.23C222.901 9.038 222.493 8.744 222.145 8.348C221.809 7.952 221.641 7.43 221.641 6.782C221.641 6.254 221.797 5.774 222.109 5.342C222.421 4.898 222.865 4.55 223.441 4.298C224.029 4.046 224.701 3.92 225.457 3.92C226.585 3.92 227.491 4.208 228.175 4.784C228.871 5.348 229.243 6.122 229.291 7.106H227.239C227.203 6.662 227.023 6.308 226.699 6.044C226.375 5.78 225.937 5.648 225.385 5.648C224.845 5.648 224.431 5.75 224.143 5.954C223.855 6.158 223.711 6.428 223.711 6.764C223.711 7.028 223.807 7.25 223.999 7.43C224.191 7.61 224.425 7.754 224.701 7.862C224.977 7.958 225.385 8.084 225.925 8.24C226.645 8.432 227.233 8.63 227.689 8.834C228.157 9.026 228.559 9.314 228.895 9.698C229.231 10.082 229.405 10.592 229.417 11.228C229.417 11.792 229.261 12.296 228.949 12.74C228.637 13.184 228.193 13.532 227.617 13.784C227.053 14.036 226.387 14.162 225.619 14.162ZM234.333 5.756V11.246C234.333 11.618 234.417 11.888 234.585 12.056C234.765 12.212 235.065 12.29 235.485 12.29H236.745V14H235.125C234.201 14 233.493 13.784 233.001 13.352C232.509 12.92 232.263 12.218 232.263 11.246V5.756H231.093V4.082H232.263V1.616H234.333V4.082H236.745V5.756H234.333ZM248.03 8.798C248.03 9.17 248.006 9.506 247.958 9.806H240.38C240.44 10.598 240.734 11.234 241.262 11.714C241.79 12.194 242.438 12.434 243.206 12.434C244.31 12.434 245.09 11.972 245.546 11.048H247.76C247.46 11.96 246.914 12.71 246.122 13.298C245.342 13.874 244.37 14.162 243.206 14.162C242.258 14.162 241.406 13.952 240.65 13.532C239.906 13.1 239.318 12.5 238.886 11.732C238.466 10.952 238.256 10.052 238.256 9.032C238.256 8.012 238.46 7.118 238.868 6.35C239.288 5.57 239.87 4.97 240.614 4.55C241.37 4.13 242.234 3.92 243.206 3.92C244.142 3.92 244.976 4.124 245.708 4.532C246.44 4.94 247.01 5.516 247.418 6.26C247.826 6.992 248.03 7.838 248.03 8.798ZM245.888 8.15C245.876 7.394 245.606 6.788 245.078 6.332C244.55 5.876 243.896 5.648 243.116 5.648C242.408 5.648 241.802 5.876 241.298 6.332C240.794 6.776 240.494 7.382 240.398 8.15H245.888ZM252.406 5.522C252.706 5.018 253.102 4.628 253.594 4.352C254.098 4.064 254.692 3.92 255.376 3.92V6.044H254.854C254.05 6.044 253.438 6.248 253.018 6.656C252.61 7.064 252.406 7.772 252.406 8.78V14H250.354V4.082H252.406V5.522ZM265.648 1.49V3.164H262.318V14H260.266V3.164H256.918V1.49H265.648ZM267.347 8.996C267.347 8 267.551 7.118 267.959 6.35C268.379 5.582 268.943 4.988 269.651 4.568C270.371 4.136 271.163 3.92 272.027 3.92C272.807 3.92 273.485 4.076 274.061 4.388C274.649 4.688 275.117 5.066 275.465 5.522V4.082H277.535V14H275.465V12.524C275.117 12.992 274.643 13.382 274.043 13.694C273.443 14.006 272.759 14.162 271.991 14.162C271.139 14.162 270.359 13.946 269.651 13.514C268.943 13.07 268.379 12.458 267.959 11.678C267.551 10.886 267.347 9.992 267.347 8.996ZM275.465 9.032C275.465 8.348 275.321 7.754 275.033 7.25C274.757 6.746 274.391 6.362 273.935 6.098C273.479 5.834 272.987 5.702 272.459 5.702C271.931 5.702 271.439 5.834 270.983 6.098C270.527 6.35 270.155 6.728 269.867 7.232C269.591 7.724 269.453 8.312 269.453 8.996C269.453 9.68 269.591 10.28 269.867 10.796C270.155 11.312 270.527 11.708 270.983 11.984C271.451 12.248 271.943 12.38 272.459 12.38C272.987 12.38 273.479 12.248 273.935 11.984C274.391 11.72 274.757 11.336 275.033 10.832C275.321 10.316 275.465 9.716 275.465 9.032ZM284.53 3.92C285.298 3.92 285.976 4.076 286.564 4.388C287.164 4.688 287.632 5.066 287.968 5.522V4.082H290.038V14.162C290.038 15.074 289.846 15.884 289.462 16.592C289.078 17.312 288.52 17.876 287.788 18.284C287.068 18.692 286.204 18.896 285.196 18.896C283.852 18.896 282.736 18.578 281.848 17.942C280.96 17.318 280.456 16.466 280.336 15.386H282.37C282.526 15.902 282.856 16.316 283.36 16.628C283.876 16.952 284.488 17.114 285.196 17.114C286.024 17.114 286.69 16.862 287.194 16.358C287.71 15.854 287.968 15.122 287.968 14.162V12.506C287.62 12.974 287.146 13.37 286.546 13.694C285.958 14.006 285.286 14.162 284.53 14.162C283.666 14.162 282.874 13.946 282.154 13.514C281.446 13.07 280.882 12.458 280.462 11.678C280.054 10.886 279.85 9.992 279.85 8.996C279.85 8 280.054 7.118 280.462 6.35C280.882 5.582 281.446 4.988 282.154 4.568C282.874 4.136 283.666 3.92 284.53 3.92ZM287.968 9.032C287.968 8.348 287.824 7.754 287.536 7.25C287.26 6.746 286.894 6.362 286.438 6.098C285.982 5.834 285.49 5.702 284.962 5.702C284.434 5.702 283.942 5.834 283.486 6.098C283.03 6.35 282.658 6.728 282.37 7.232C282.094 7.724 281.956 8.312 281.956 8.996C281.956 9.68 282.094 10.28 282.37 10.796C282.658 11.312 283.03 11.708 283.486 11.984C283.954 12.248 284.446 12.38 284.962 12.38C285.49 12.38 285.982 12.248 286.438 11.984C286.894 11.72 287.26 11.336 287.536 10.832C287.824 10.316 287.968 9.716 287.968 9.032ZM50.3745 40.126C49.5345 40.126 48.7785 39.982 48.1065 39.694C47.4345 39.394 46.9065 38.974 46.5225 38.434C46.1385 37.894 45.9465 37.264 45.9465 36.544H48.1425C48.1905 37.084 48.4005 37.528 48.7725 37.876C49.1565 38.224 49.6905 38.398 50.3745 38.398C51.0825 38.398 51.6345 38.23 52.0305 37.894C52.4265 37.546 52.6245 37.102 52.6245 36.562C52.6245 36.142 52.4985 35.8 52.2465 35.536C52.0065 35.272 51.7005 35.068 51.3285 34.924C50.9685 34.78 50.4645 34.624 49.8165 34.456C49.0005 34.24 48.3345 34.024 47.8185 33.808C47.3145 33.58 46.8825 33.232 46.5225 32.764C46.1625 32.296 45.9825 31.672 45.9825 30.892C45.9825 30.172 46.1625 29.542 46.5225 29.002C46.8825 28.462 47.3865 28.048 48.0345 27.76C48.6825 27.472 49.4325 27.328 50.2845 27.328C51.4965 27.328 52.4865 27.634 53.2545 28.246C54.0345 28.846 54.4665 29.674 54.5505 30.73H52.2825C52.2465 30.274 52.0305 29.884 51.6345 29.56C51.2385 29.236 50.7165 29.074 50.0685 29.074C49.4805 29.074 49.0005 29.224 48.6285 29.524C48.2565 29.824 48.0705 30.256 48.0705 30.82C48.0705 31.204 48.1845 31.522 48.4125 31.774C48.6525 32.014 48.9525 32.206 49.3125 32.35C49.6725 32.494 50.1645 32.65 50.7885 32.818C51.6165 33.046 52.2885 33.274 52.8045 33.502C53.3325 33.73 53.7765 34.084 54.1365 34.564C54.5085 35.032 54.6945 35.662 54.6945 36.454C54.6945 37.09 54.5205 37.69 54.1725 38.254C53.8365 38.818 53.3385 39.274 52.6785 39.622C52.0305 39.958 51.2625 40.126 50.3745 40.126ZM59.8141 31.756V37.246C59.8141 37.618 59.8981 37.888 60.0661 38.056C60.2461 38.212 60.5461 38.29 60.9661 38.29H62.2261V40H60.6061C59.6821 40 58.9741 39.784 58.4821 39.352C57.9901 38.92 57.7441 38.218 57.7441 37.246V31.756H56.5741V30.082H57.7441V27.616H59.8141V30.082H62.2261V31.756H59.8141ZM65.4655 28.768C65.0935 28.768 64.7815 28.642 64.5295 28.39C64.2775 28.138 64.1515 27.826 64.1515 27.454C64.1515 27.082 64.2775 26.77 64.5295 26.518C64.7815 26.266 65.0935 26.14 65.4655 26.14C65.8255 26.14 66.1315 26.266 66.3835 26.518C66.6355 26.77 66.7615 27.082 66.7615 27.454C66.7615 27.826 66.6355 28.138 66.3835 28.39C66.1315 28.642 65.8255 28.768 65.4655 28.768ZM66.4735 30.082V40H64.4215V30.082H66.4735ZM68.7879 35.032C68.7879 34.012 68.9919 33.118 69.3999 32.35C69.8199 31.57 70.3959 30.97 71.1279 30.55C71.8599 30.13 72.6999 29.92 73.6479 29.92C74.8479 29.92 75.8379 30.208 76.6179 30.784C77.4099 31.348 77.9439 32.158 78.2199 33.214H76.0059C75.8259 32.722 75.5379 32.338 75.1419 32.062C74.7459 31.786 74.2479 31.648 73.6479 31.648C72.8079 31.648 72.1359 31.948 71.6319 32.548C71.1399 33.136 70.8939 33.964 70.8939 35.032C70.8939 36.1 71.1399 36.934 71.6319 37.534C72.1359 38.134 72.8079 38.434 73.6479 38.434C74.8359 38.434 75.6219 37.912 76.0059 36.868H78.2199C77.9319 37.876 77.3919 38.68 76.5999 39.28C75.8079 39.868 74.8239 40.162 73.6479 40.162C72.6999 40.162 71.8599 39.952 71.1279 39.532C70.3959 39.1 69.8199 38.5 69.3999 37.732C68.9919 36.952 68.7879 36.052 68.7879 35.032ZM84.4931 35.05L89.0651 40H86.2931L82.6211 35.734V40H80.5691V26.68H82.6211V34.42L86.2211 30.082H89.0651L84.4931 35.05ZM99.9301 34.798C99.9301 35.17 99.9061 35.506 99.8581 35.806H92.2801C92.3401 36.598 92.6341 37.234 93.1621 37.714C93.6901 38.194 94.3381 38.434 95.1061 38.434C96.2101 38.434 96.9901 37.972 97.4461 37.048H99.6601C99.3601 37.96 98.8141 38.71 98.0221 39.298C97.2421 39.874 96.2701 40.162 95.1061 40.162C94.1581 40.162 93.3061 39.952 92.5501 39.532C91.8061 39.1 91.2181 38.5 90.7861 37.732C90.3661 36.952 90.1561 36.052 90.1561 35.032C90.1561 34.012 90.3601 33.118 90.7681 32.35C91.1881 31.57 91.7701 30.97 92.5141 30.55C93.2701 30.13 94.1341 29.92 95.1061 29.92C96.0421 29.92 96.8761 30.124 97.6081 30.532C98.3401 30.94 98.9101 31.516 99.3181 32.26C99.7261 32.992 99.9301 33.838 99.9301 34.798ZM97.7881 34.15C97.7761 33.394 97.5061 32.788 96.9781 32.332C96.4501 31.876 95.7961 31.648 95.0161 31.648C94.3081 31.648 93.7021 31.876 93.1981 32.332C92.6941 32.776 92.3941 33.382 92.2981 34.15H97.7881ZM104.306 31.522C104.606 31.018 105.002 30.628 105.494 30.352C105.998 30.064 106.592 29.92 107.276 29.92V32.044H106.754C105.95 32.044 105.338 32.248 104.918 32.656C104.51 33.064 104.306 33.772 104.306 34.78V40H102.254V30.082H104.306V31.522ZM116.84 31.756V37.246C116.84 37.618 116.924 37.888 117.092 38.056C117.272 38.212 117.572 38.29 117.992 38.29H119.252V40H117.632C116.708 40 116 39.784 115.508 39.352C115.016 38.92 114.77 38.218 114.77 37.246V31.756H113.6V30.082H114.77V27.616H116.84V30.082H119.252V31.756H116.84ZM125.75 40.162C124.814 40.162 123.968 39.952 123.212 39.532C122.456 39.1 121.862 38.5 121.43 37.732C120.998 36.952 120.782 36.052 120.782 35.032C120.782 34.024 121.004 33.13 121.448 32.35C121.892 31.57 122.498 30.97 123.266 30.55C124.034 30.13 124.892 29.92 125.84 29.92C126.788 29.92 127.646 30.13 128.414 30.55C129.182 30.97 129.788 31.57 130.232 32.35C130.676 33.13 130.898 34.024 130.898 35.032C130.898 36.04 130.67 36.934 130.214 37.714C129.758 38.494 129.134 39.1 128.342 39.532C127.562 39.952 126.698 40.162 125.75 40.162ZM125.75 38.38C126.278 38.38 126.77 38.254 127.226 38.002C127.694 37.75 128.072 37.372 128.36 36.868C128.648 36.364 128.792 35.752 128.792 35.032C128.792 34.312 128.654 33.706 128.378 33.214C128.102 32.71 127.736 32.332 127.28 32.08C126.824 31.828 126.332 31.702 125.804 31.702C125.276 31.702 124.784 31.828 124.328 32.08C123.884 32.332 123.53 32.71 123.266 33.214C123.002 33.706 122.87 34.312 122.87 35.032C122.87 36.1 123.14 36.928 123.68 37.516C124.232 38.092 124.922 38.38 125.75 38.38ZM142.206 29.92C142.974 29.92 143.652 30.076 144.24 30.388C144.84 30.688 145.308 31.066 145.644 31.522V30.082H147.714V40.162C147.714 41.074 147.522 41.884 147.138 42.592C146.754 43.312 146.196 43.876 145.464 44.284C144.744 44.692 143.88 44.896 142.872 44.896C141.528 44.896 140.412 44.578 139.524 43.942C138.636 43.318 138.132 42.466 138.012 41.386H140.046C140.202 41.902 140.532 42.316 141.036 42.628C141.552 42.952 142.164 43.114 142.872 43.114C143.7 43.114 144.366 42.862 144.87 42.358C145.386 41.854 145.644 41.122 145.644 40.162V38.506C145.296 38.974 144.822 39.37 144.222 39.694C143.634 40.006 142.962 40.162 142.206 40.162C141.342 40.162 140.55 39.946 139.83 39.514C139.122 39.07 138.558 38.458 138.138 37.678C137.73 36.886 137.526 35.992 137.526 34.996C137.526 34 137.73 33.118 138.138 32.35C138.558 31.582 139.122 30.988 139.83 30.568C140.55 30.136 141.342 29.92 142.206 29.92ZM145.644 35.032C145.644 34.348 145.5 33.754 145.212 33.25C144.936 32.746 144.57 32.362 144.114 32.098C143.658 31.834 143.166 31.702 142.638 31.702C142.11 31.702 141.618 31.834 141.162 32.098C140.706 32.35 140.334 32.728 140.046 33.232C139.77 33.724 139.632 34.312 139.632 34.996C139.632 35.68 139.77 36.28 140.046 36.796C140.334 37.312 140.706 37.708 141.162 37.984C141.63 38.248 142.122 38.38 142.638 38.38C143.166 38.38 143.658 38.248 144.114 37.984C144.57 37.72 144.936 37.336 145.212 36.832C145.5 36.316 145.644 35.716 145.644 35.032ZM159.804 34.798C159.804 35.17 159.78 35.506 159.732 35.806H152.154C152.214 36.598 152.508 37.234 153.036 37.714C153.564 38.194 154.212 38.434 154.98 38.434C156.084 38.434 156.864 37.972 157.32 37.048H159.534C159.234 37.96 158.688 38.71 157.896 39.298C157.116 39.874 156.144 40.162 154.98 40.162C154.032 40.162 153.18 39.952 152.424 39.532C151.68 39.1 151.092 38.5 150.66 37.732C150.24 36.952 150.03 36.052 150.03 35.032C150.03 34.012 150.234 33.118 150.642 32.35C151.062 31.57 151.644 30.97 152.388 30.55C153.144 30.13 154.008 29.92 154.98 29.92C155.916 29.92 156.75 30.124 157.482 30.532C158.214 30.94 158.784 31.516 159.192 32.26C159.6 32.992 159.804 33.838 159.804 34.798ZM157.662 34.15C157.65 33.394 157.38 32.788 156.852 32.332C156.324 31.876 155.67 31.648 154.89 31.648C154.182 31.648 153.576 31.876 153.072 32.332C152.568 32.776 152.268 33.382 152.172 34.15H157.662ZM164.521 31.756V37.246C164.521 37.618 164.605 37.888 164.773 38.056C164.953 38.212 165.253 38.29 165.673 38.29H166.933V40H165.313C164.389 40 163.681 39.784 163.189 39.352C162.697 38.92 162.451 38.218 162.451 37.246V31.756H161.281V30.082H162.451V27.616H164.521V30.082H166.933V31.756H164.521ZM177.709 40.162C176.929 40.162 176.227 40.024 175.603 39.748C174.991 39.46 174.505 39.076 174.145 38.596C173.785 38.104 173.593 37.558 173.569 36.958H175.693C175.729 37.378 175.927 37.732 176.287 38.02C176.659 38.296 177.121 38.434 177.673 38.434C178.249 38.434 178.693 38.326 179.005 38.11C179.329 37.882 179.491 37.594 179.491 37.246C179.491 36.874 179.311 36.598 178.951 36.418C178.603 36.238 178.045 36.04 177.277 35.824C176.533 35.62 175.927 35.422 175.459 35.23C174.991 35.038 174.583 34.744 174.235 34.348C173.899 33.952 173.731 33.43 173.731 32.782C173.731 32.254 173.887 31.774 174.199 31.342C174.511 30.898 174.955 30.55 175.531 30.298C176.119 30.046 176.791 29.92 177.547 29.92C178.675 29.92 179.581 30.208 180.265 30.784C180.961 31.348 181.333 32.122 181.381 33.106H179.329C179.293 32.662 179.113 32.308 178.789 32.044C178.465 31.78 178.027 31.648 177.475 31.648C176.935 31.648 176.521 31.75 176.233 31.954C175.945 32.158 175.801 32.428 175.801 32.764C175.801 33.028 175.897 33.25 176.089 33.43C176.281 33.61 176.515 33.754 176.791 33.862C177.067 33.958 177.475 34.084 178.015 34.24C178.735 34.432 179.323 34.63 179.779 34.834C180.247 35.026 180.649 35.314 180.985 35.698C181.321 36.082 181.495 36.592 181.507 37.228C181.507 37.792 181.351 38.296 181.039 38.74C180.727 39.184 180.283 39.532 179.707 39.784C179.143 40.036 178.477 40.162 177.709 40.162ZM186.422 31.756V37.246C186.422 37.618 186.506 37.888 186.674 38.056C186.854 38.212 187.154 38.29 187.574 38.29H188.834V40H187.214C186.29 40 185.582 39.784 185.09 39.352C184.598 38.92 184.352 38.218 184.352 37.246V31.756H183.182V30.082H184.352V27.616H186.422V30.082H188.834V31.756H186.422ZM190.346 34.996C190.346 34 190.55 33.118 190.958 32.35C191.378 31.582 191.942 30.988 192.65 30.568C193.37 30.136 194.162 29.92 195.026 29.92C195.806 29.92 196.484 30.076 197.06 30.388C197.648 30.688 198.116 31.066 198.464 31.522V30.082H200.534V40H198.464V38.524C198.116 38.992 197.642 39.382 197.042 39.694C196.442 40.006 195.758 40.162 194.99 40.162C194.138 40.162 193.358 39.946 192.65 39.514C191.942 39.07 191.378 38.458 190.958 37.678C190.55 36.886 190.346 35.992 190.346 34.996ZM198.464 35.032C198.464 34.348 198.32 33.754 198.032 33.25C197.756 32.746 197.39 32.362 196.934 32.098C196.478 31.834 195.986 31.702 195.458 31.702C194.93 31.702 194.438 31.834 193.982 32.098C193.526 32.35 193.154 32.728 192.866 33.232C192.59 33.724 192.452 34.312 192.452 34.996C192.452 35.68 192.59 36.28 192.866 36.796C193.154 37.312 193.526 37.708 193.982 37.984C194.45 38.248 194.942 38.38 195.458 38.38C195.986 38.38 196.478 38.248 196.934 37.984C197.39 37.72 197.756 37.336 198.032 36.832C198.32 36.316 198.464 35.716 198.464 35.032ZM205.585 31.522C205.885 31.018 206.281 30.628 206.773 30.352C207.277 30.064 207.871 29.92 208.555 29.92V32.044H208.033C207.229 32.044 206.617 32.248 206.197 32.656C205.789 33.064 205.585 33.772 205.585 34.78V40H203.533V30.082H205.585V31.522ZM213.14 31.756V37.246C213.14 37.618 213.224 37.888 213.392 38.056C213.572 38.212 213.872 38.29 214.292 38.29H215.552V40H213.932C213.008 40 212.3 39.784 211.808 39.352C211.316 38.92 211.07 38.218 211.07 37.246V31.756H209.9V30.082H211.07V27.616H213.14V30.082H215.552V31.756H213.14ZM226.837 34.798C226.837 35.17 226.813 35.506 226.765 35.806H219.187C219.247 36.598 219.541 37.234 220.069 37.714C220.597 38.194 221.245 38.434 222.013 38.434C223.117 38.434 223.897 37.972 224.353 37.048H226.567C226.267 37.96 225.721 38.71 224.929 39.298C224.149 39.874 223.177 40.162 222.013 40.162C221.065 40.162 220.213 39.952 219.457 39.532C218.713 39.1 218.125 38.5 217.693 37.732C217.273 36.952 217.063 36.052 217.063 35.032C217.063 34.012 217.267 33.118 217.675 32.35C218.095 31.57 218.677 30.97 219.421 30.55C220.177 30.13 221.041 29.92 222.013 29.92C222.949 29.92 223.783 30.124 224.515 30.532C225.247 30.94 225.817 31.516 226.225 32.26C226.633 32.992 226.837 33.838 226.837 34.798ZM224.695 34.15C224.683 33.394 224.413 32.788 223.885 32.332C223.357 31.876 222.703 31.648 221.923 31.648C221.215 31.648 220.609 31.876 220.105 32.332C219.601 32.776 219.301 33.382 219.205 34.15H224.695ZM228.477 34.996C228.477 34 228.681 33.118 229.089 32.35C229.509 31.582 230.073 30.988 230.781 30.568C231.501 30.136 232.299 29.92 233.175 29.92C233.823 29.92 234.459 30.064 235.083 30.352C235.719 30.628 236.223 31 236.595 31.468V26.68H238.665V40H236.595V38.506C236.259 38.986 235.791 39.382 235.191 39.694C234.603 40.006 233.925 40.162 233.157 40.162C232.293 40.162 231.501 39.946 230.781 39.514C230.073 39.07 229.509 38.458 229.089 37.678C228.681 36.886 228.477 35.992 228.477 34.996ZM236.595 35.032C236.595 34.348 236.451 33.754 236.163 33.25C235.887 32.746 235.521 32.362 235.065 32.098C234.609 31.834 234.117 31.702 233.589 31.702C233.061 31.702 232.569 31.834 232.113 32.098C231.657 32.35 231.285 32.728 230.997 33.232C230.721 33.724 230.583 34.312 230.583 34.996C230.583 35.68 230.721 36.28 230.997 36.796C231.285 37.312 231.657 37.708 232.113 37.984C232.581 38.248 233.073 38.38 233.589 38.38C234.117 38.38 234.609 38.248 235.065 37.984C235.521 37.72 235.887 37.336 236.163 36.832C236.451 36.316 236.595 35.716 236.595 35.032ZM244.238 27.49L244.004 36.22H242.294L242.06 27.49H244.238ZM243.212 40.126C242.84 40.126 242.528 40 242.276 39.748C242.024 39.496 241.898 39.184 241.898 38.812C241.898 38.44 242.024 38.128 242.276 37.876C242.528 37.624 242.84 37.498 243.212 37.498C243.572 37.498 243.878 37.624 244.13 37.876C244.382 38.128 244.508 38.44 244.508 38.812C244.508 39.184 244.382 39.496 244.13 39.748C243.878 40 243.572 40.126 243.212 40.126Z" fill="#212529"/>
</svg>
