<svg width="245" height="16" viewBox="0 0 245 16" fill="none" xmlns="http://www.w3.org/2000/svg">
<path d="M117.502 13.098C116.597 13.098 115.771 12.888 115.024 12.468C114.277 12.0387 113.685 11.446 113.246 10.69C112.817 9.92467 112.602 9.066 112.602 8.114C112.602 7.162 112.817 6.308 113.246 5.552C113.685 4.78667 114.277 4.194 115.024 3.774C115.771 3.34467 116.597 3.13 117.502 3.13C118.417 3.13 119.247 3.34467 119.994 3.774C120.741 4.194 121.329 4.782 121.758 5.538C122.187 6.294 122.402 7.15267 122.402 8.114C122.402 9.07533 122.187 9.934 121.758 10.69C121.329 11.446 120.741 12.0387 119.994 12.468C119.247 12.888 118.417 13.098 117.502 13.098ZM117.502 11.992C118.183 11.992 118.795 11.8333 119.336 11.516C119.887 11.1987 120.316 10.746 120.624 10.158C120.941 9.57 121.1 8.88867 121.1 8.114C121.1 7.33 120.941 6.64867 120.624 6.07C120.316 5.482 119.891 5.02933 119.35 4.712C118.809 4.39467 118.193 4.236 117.502 4.236C116.811 4.236 116.195 4.39467 115.654 4.712C115.113 5.02933 114.683 5.482 114.366 6.07C114.058 6.64867 113.904 7.33 113.904 8.114C113.904 8.88867 114.058 9.57 114.366 10.158C114.683 10.746 115.113 11.1987 115.654 11.516C116.205 11.8333 116.821 11.992 117.502 11.992ZM129.639 13L127.315 9.01H125.775V13H124.501V3.242H127.651C128.388 3.242 129.009 3.368 129.513 3.62C130.026 3.872 130.409 4.21267 130.661 4.642C130.913 5.07133 131.039 5.56133 131.039 6.112C131.039 6.784 130.843 7.37667 130.451 7.89C130.068 8.40333 129.49 8.744 128.715 8.912L131.165 13H129.639ZM125.775 7.988H127.651C128.342 7.988 128.86 7.82 129.205 7.484C129.55 7.13867 129.723 6.68133 129.723 6.112C129.723 5.53333 129.55 5.08533 129.205 4.768C128.869 4.45067 128.351 4.292 127.651 4.292H125.775V7.988Z" fill="black"/>
<path d="M142 8L245 7.5" stroke="black" stroke-width="0.5"/>
<path d="M0 8.5L103 8" stroke="black" stroke-width="0.5"/>
</svg>
