<svg width="116" height="48" viewBox="0 0 116 48" fill="none" xmlns="http://www.w3.org/2000/svg">
<g filter="url(#filter0_di_301_31)">
<rect x="4" y="4" width="108" height="40" rx="5" fill="white"/>
<rect x="4.1" y="4.1" width="107.8" height="39.8" rx="4.9" stroke="#E7E7E7" stroke-width="0.2"/>
</g>
<path d="M33.402 28.344H37.632V30H31.35V17.49H33.402V28.344ZM43.9543 30.162C43.0183 30.162 42.1723 29.952 41.4163 29.532C40.6603 29.1 40.0663 28.5 39.6343 27.732C39.2023 26.952 38.9863 26.052 38.9863 25.032C38.9863 24.024 39.2083 23.13 39.6523 22.35C40.0963 21.57 40.7023 20.97 41.4703 20.55C42.2383 20.13 43.0963 19.92 44.0443 19.92C44.9923 19.92 45.8503 20.13 46.6183 20.55C47.3863 20.97 47.9923 21.57 48.4363 22.35C48.8803 23.13 49.1023 24.024 49.1023 25.032C49.1023 26.04 48.8743 26.934 48.4183 27.714C47.9623 28.494 47.3383 29.1 46.5463 29.532C45.7663 29.952 44.9023 30.162 43.9543 30.162ZM43.9543 28.38C44.4823 28.38 44.9743 28.254 45.4303 28.002C45.8983 27.75 46.2763 27.372 46.5643 26.868C46.8523 26.364 46.9963 25.752 46.9963 25.032C46.9963 24.312 46.8583 23.706 46.5823 23.214C46.3063 22.71 45.9403 22.332 45.4843 22.08C45.0283 21.828 44.5363 21.702 44.0083 21.702C43.4803 21.702 42.9883 21.828 42.5323 22.08C42.0883 22.332 41.7343 22.71 41.4703 23.214C41.2063 23.706 41.0743 24.312 41.0743 25.032C41.0743 26.1 41.3443 26.928 41.8843 27.516C42.4363 28.092 43.1263 28.38 43.9543 28.38ZM55.431 19.92C56.199 19.92 56.877 20.076 57.465 20.388C58.065 20.688 58.533 21.066 58.869 21.522V20.082H60.939V30.162C60.939 31.074 60.747 31.884 60.363 32.592C59.979 33.312 59.421 33.876 58.689 34.284C57.969 34.692 57.105 34.896 56.097 34.896C54.753 34.896 53.637 34.578 52.749 33.942C51.861 33.318 51.357 32.466 51.237 31.386H53.271C53.427 31.902 53.757 32.316 54.261 32.628C54.777 32.952 55.389 33.114 56.097 33.114C56.925 33.114 57.591 32.862 58.095 32.358C58.611 31.854 58.869 31.122 58.869 30.162V28.506C58.521 28.974 58.047 29.37 57.447 29.694C56.859 30.006 56.187 30.162 55.431 30.162C54.567 30.162 53.775 29.946 53.055 29.514C52.347 29.07 51.783 28.458 51.363 27.678C50.955 26.886 50.751 25.992 50.751 24.996C50.751 24 50.955 23.118 51.363 22.35C51.783 21.582 52.347 20.988 53.055 20.568C53.775 20.136 54.567 19.92 55.431 19.92ZM58.869 25.032C58.869 24.348 58.725 23.754 58.437 23.25C58.161 22.746 57.795 22.362 57.339 22.098C56.883 21.834 56.391 21.702 55.863 21.702C55.335 21.702 54.843 21.834 54.387 22.098C53.931 22.35 53.559 22.728 53.271 23.232C52.995 23.724 52.857 24.312 52.857 24.996C52.857 25.68 52.995 26.28 53.271 26.796C53.559 27.312 53.931 27.708 54.387 27.984C54.855 28.248 55.347 28.38 55.863 28.38C56.391 28.38 56.883 28.248 57.339 27.984C57.795 27.72 58.161 27.336 58.437 26.832C58.725 26.316 58.869 25.716 58.869 25.032ZM70.9705 17.49V30H68.9185V17.49H70.9705ZM78.9728 19.92C79.7528 19.92 80.4488 20.082 81.0608 20.406C81.6848 20.73 82.1708 21.21 82.5188 21.846C82.8668 22.482 83.0408 23.25 83.0408 24.15V30H81.0068V24.456C81.0068 23.568 80.7848 22.89 80.3408 22.422C79.8968 21.942 79.2908 21.702 78.5228 21.702C77.7548 21.702 77.1428 21.942 76.6868 22.422C76.2428 22.89 76.0208 23.568 76.0208 24.456V30H73.9688V20.082H76.0208V21.216C76.3568 20.808 76.7828 20.49 77.2988 20.262C77.8268 20.034 78.3848 19.92 78.9728 19.92Z" fill="#FE0000"/>
<defs>
<filter id="filter0_di_301_31" x="0" y="0" width="116" height="48" filterUnits="userSpaceOnUse" color-interpolation-filters="sRGB">
<feFlood flood-opacity="0" result="BackgroundImageFix"/>
<feColorMatrix in="SourceAlpha" type="matrix" values="0 0 0 0 0 0 0 0 0 0 0 0 0 0 0 0 0 0 127 0" result="hardAlpha"/>
<feOffset/>
<feGaussianBlur stdDeviation="2"/>
<feComposite in2="hardAlpha" operator="out"/>
<feColorMatrix type="matrix" values="0 0 0 0 0 0 0 0 0 0 0 0 0 0 0 0 0 0 0.25 0"/>
<feBlend mode="normal" in2="BackgroundImageFix" result="effect1_dropShadow_301_31"/>
<feBlend mode="normal" in="SourceGraphic" in2="effect1_dropShadow_301_31" result="shape"/>
<feColorMatrix in="SourceAlpha" type="matrix" values="0 0 0 0 0 0 0 0 0 0 0 0 0 0 0 0 0 0 127 0" result="hardAlpha"/>
<feOffset/>
<feGaussianBlur stdDeviation="2.5"/>
<feComposite in2="hardAlpha" operator="arithmetic" k2="-1" k3="1"/>
<feColorMatrix type="matrix" values="0 0 0 0 0 0 0 0 0 0 0 0 0 0 0 0 0 0 0.25 0"/>
<feBlend mode="normal" in2="shape" result="effect2_innerShadow_301_31"/>
</filter>
</defs>
</svg>
